<?xml version="1.0" encoding="UTF-8" standalone="no"?><svg xmlns="http://www.w3.org/2000/svg" xmlns:xlink="http://www.w3.org/1999/xlink" contentStyleType="text/css" height="1221px" preserveAspectRatio="none" style="width:1462px;height:1221px;background:#FFFFFF;" version="1.1" viewBox="0 0 1462 1221" width="1462px" zoomAndPan="magnify"><defs/><g><g id="elem_inicioManager"><rect fill="#F1F1F1" height="44.5938" style="stroke:#181818;stroke-width:0.5;" width="109" x="608.5" y="7"/><text fill="#000000" font-family="sans-serif" font-size="14" lengthAdjust="spacing" textLength="95" x="615.5" y="21.9951">inicioManager</text><line style="stroke:#181818;stroke-width:0.5;" x1="609.5" x2="716.5" y1="27.2969" y2="27.2969"/><text fill="#000000" font-family="sans-serif" font-size="14" lengthAdjust="spacing" textLength="71" x="614.5" y="44.292">inicializar()</text></g><g id="elem_juego"><rect fill="#F1F1F1" height="126.0781" style="stroke:#181818;stroke-width:0.5;" width="186" x="570" y="112"/><text fill="#000000" font-family="sans-serif" font-size="14" lengthAdjust="spacing" textLength="39" x="643.5" y="126.9951">juego</text><line style="stroke:#181818;stroke-width:0.5;" x1="571" x2="755" y1="132.2969" y2="132.2969"/><text fill="#000000" font-family="sans-serif" font-size="14" lengthAdjust="spacing" textLength="73" x="576" y="149.292">nivelActual</text><text fill="#000000" font-family="sans-serif" font-size="14" lengthAdjust="spacing" textLength="49" x="576" y="165.5889">iniciar()</text><text fill="#000000" font-family="sans-serif" font-size="14" lengthAdjust="spacing" textLength="106" x="576" y="181.8857">siguienteNivel()</text><text fill="#000000" font-family="sans-serif" font-size="14" lengthAdjust="spacing" textLength="174" x="576" y="198.1826">interaccionesGenerales()</text><text fill="#000000" font-family="sans-serif" font-size="14" lengthAdjust="spacing" textLength="148" x="576" y="214.4795">configurarPersonaje()</text><text fill="#000000" font-family="sans-serif" font-size="14" lengthAdjust="spacing" textLength="130" x="576" y="230.7764">agregarInventario()</text></g><!--MD5=[d544e1720d36c287a1d38909fe06b56d]
class Nivel--><g id="elem_Nivel"><rect codeLine="14" fill="#F1F1F1" height="145.7813" id="Nivel" rx="2.5" ry="2.5" style="stroke:#181818;stroke-width:0.5;" width="153" x="318.5" y="298"/><ellipse cx="374.75" cy="314" fill="#ADD1B2" rx="11" ry="11" style="stroke:#181818;stroke-width:1.0;"/><path d="M377.7188,319.6406 Q377.1406,319.9375 376.5,320.0781 Q375.8594,320.2344 375.1563,320.2344 Q372.6563,320.2344 371.3281,318.5938 Q370.0156,316.9375 370.0156,313.8125 Q370.0156,310.6875 371.3281,309.0313 Q372.6563,307.375 375.1563,307.375 Q375.8594,307.375 376.5,307.5313 Q377.1563,307.6875 377.7188,307.9844 L377.7188,310.7031 Q377.0938,310.125 376.5,309.8594 Q375.9063,309.5781 375.2813,309.5781 Q373.9375,309.5781 373.25,310.6563 Q372.5625,311.7188 372.5625,313.8125 Q372.5625,315.9063 373.25,316.9844 Q373.9375,318.0469 375.2813,318.0469 Q375.9063,318.0469 376.5,317.7813 Q377.0938,317.5 377.7188,316.9219 L377.7188,319.6406 Z " fill="#000000"/><text fill="#000000" font-family="sans-serif" font-size="14" lengthAdjust="spacing" textLength="32" x="395.25" y="318.8467">Nivel</text><line style="stroke:#181818;stroke-width:0.5;" x1="319.5" x2="470.5" y1="330" y2="330"/><line style="stroke:#181818;stroke-width:0.5;" x1="319.5" x2="470.5" y1="338" y2="338"/><text fill="#000000" font-family="sans-serif" font-size="14" lengthAdjust="spacing" textLength="97" x="324.5" y="354.9951">proximoNivel()</text><text fill="#000000" font-family="sans-serif" font-size="14" lengthAdjust="spacing" textLength="141" x="324.5" y="371.292">agregarObstaculos()</text><text fill="#000000" font-family="sans-serif" font-size="14" lengthAdjust="spacing" textLength="49" x="324.5" y="387.5889">iniciar()</text><text fill="#000000" font-family="sans-serif" font-size="14" lengthAdjust="spacing" textLength="132" x="324.5" y="403.8857">agregarEnemigos()</text><text fill="#000000" font-family="sans-serif" font-size="14" lengthAdjust="spacing" textLength="117" x="324.5" y="420.1826">agregarObjetos()</text><text fill="#000000" font-family="sans-serif" font-size="14" lengthAdjust="spacing" textLength="103" x="324.5" y="436.4795">interacciones()</text></g><g id="elem_nivel0"><rect fill="#F1F1F1" height="36.2969" style="stroke:#181818;stroke-width:0.5;" width="54" x="279" y="157"/><text fill="#000000" font-family="sans-serif" font-size="14" lengthAdjust="spacing" textLength="40" x="286" y="171.9951">nivel0</text><line style="stroke:#181818;stroke-width:0.5;" x1="280" x2="332" y1="177.2969" y2="177.2969"/></g><g id="elem_nivel1"><rect fill="#F1F1F1" height="36.2969" style="stroke:#181818;stroke-width:0.5;" width="54" x="368" y="157"/><text fill="#000000" font-family="sans-serif" font-size="14" lengthAdjust="spacing" textLength="40" x="375" y="171.9951">nivel1</text><line style="stroke:#181818;stroke-width:0.5;" x1="369" x2="421" y1="177.2969" y2="177.2969"/></g><g id="elem_nivel2"><rect fill="#F1F1F1" height="36.2969" style="stroke:#181818;stroke-width:0.5;" width="54" x="457" y="157"/><text fill="#000000" font-family="sans-serif" font-size="14" lengthAdjust="spacing" textLength="40" x="464" y="171.9951">nivel2</text><line style="stroke:#181818;stroke-width:0.5;" x1="458" x2="510" y1="177.2969" y2="177.2969"/></g><g id="elem_personaje"><rect fill="#F1F1F1" height="223.8594" style="stroke:#181818;stroke-width:0.5;" width="151" x="548.5" y="693"/><text fill="#000000" font-family="sans-serif" font-size="14" lengthAdjust="spacing" textLength="69" x="589.5" y="707.9951">personaje</text><line style="stroke:#181818;stroke-width:0.5;" x1="549.5" x2="698.5" y1="713.2969" y2="713.2969"/><text fill="#000000" font-family="sans-serif" font-size="14" lengthAdjust="spacing" textLength="139" x="554.5" y="730.292">posicionReaparicion</text><text fill="#000000" font-family="sans-serif" font-size="14" lengthAdjust="spacing" textLength="63" x="554.5" y="746.5889">direccion</text><text fill="#000000" font-family="sans-serif" font-size="14" lengthAdjust="spacing" textLength="73" x="554.5" y="762.8857">corazones</text><text fill="#000000" font-family="sans-serif" font-size="14" lengthAdjust="spacing" textLength="67" x="554.5" y="779.1826">inventario</text><text fill="#000000" font-family="sans-serif" font-size="14" lengthAdjust="spacing" textLength="100" x="554.5" y="795.4795">objetoEnMano</text><text fill="#000000" font-family="sans-serif" font-size="14" lengthAdjust="spacing" textLength="67" x="554.5" y="811.7764">derecha()</text><text fill="#000000" font-family="sans-serif" font-size="14" lengthAdjust="spacing" textLength="73" x="554.5" y="828.0732">izquierda()</text><text fill="#000000" font-family="sans-serif" font-size="14" lengthAdjust="spacing" textLength="55" x="554.5" y="844.3701">muere()</text><text fill="#000000" font-family="sans-serif" font-size="14" lengthAdjust="spacing" textLength="82" x="554.5" y="860.667">sumarVida()</text><text fill="#000000" font-family="sans-serif" font-size="14" lengthAdjust="spacing" textLength="79" x="554.5" y="876.9639">restarVida()</text><text fill="#000000" font-family="sans-serif" font-size="14" lengthAdjust="spacing" textLength="65" x="554.5" y="893.2607">agachar()</text><text fill="#000000" font-family="sans-serif" font-size="14" lengthAdjust="spacing" textLength="65" x="554.5" y="909.5576">disparar()</text></g><g id="elem_derecha"><rect fill="#F1F1F1" height="44.5938" style="stroke:#181818;stroke-width:0.5;" width="117" x="334.5" y="1003"/><text fill="#000000" font-family="sans-serif" font-size="14" lengthAdjust="spacing" textLength="57" x="364.5" y="1017.9951">derecha</text><line style="stroke:#181818;stroke-width:0.5;" x1="335.5" x2="450.5" y1="1023.2969" y2="1023.2969"/><text fill="#000000" font-family="sans-serif" font-size="14" lengthAdjust="spacing" textLength="105" x="340.5" y="1040.292">imagen(objeto)</text></g><g id="elem_izquierda"><rect fill="#F1F1F1" height="44.5938" style="stroke:#181818;stroke-width:0.5;" width="117" x="486.5" y="1003"/><text fill="#000000" font-family="sans-serif" font-size="14" lengthAdjust="spacing" textLength="63" x="513.5" y="1017.9951">izquierda</text><line style="stroke:#181818;stroke-width:0.5;" x1="487.5" x2="602.5" y1="1023.2969" y2="1023.2969"/><text fill="#000000" font-family="sans-serif" font-size="14" lengthAdjust="spacing" textLength="105" x="492.5" y="1040.292">imagen(objeto)</text></g><g id="elem_vacio"><rect fill="#F1F1F1" height="60.8906" style="stroke:#181818;stroke-width:0.5;" width="137" x="638.5" y="995"/><text fill="#000000" font-family="sans-serif" font-size="14" lengthAdjust="spacing" textLength="35" x="689.5" y="1009.9951">vacio</text><line style="stroke:#181818;stroke-width:0.5;" x1="639.5" x2="774.5" y1="1015.2969" y2="1015.2969"/><text fill="#000000" font-family="sans-serif" font-size="14" lengthAdjust="spacing" textLength="125" x="644.5" y="1032.292">equipar(direccion)</text><text fill="#000000" font-family="sans-serif" font-size="14" lengthAdjust="spacing" textLength="40" x="644.5" y="1048.5889">usar()</text></g><!--MD5=[bdfd9f38b6937c348946bb4c2fdd0f9e]
class Corazon--><g id="elem_Corazon"><rect codeLine="56" fill="#F1F1F1" height="96.8906" id="Corazon" rx="2.5" ry="2.5" style="stroke:#181818;stroke-width:0.5;" width="119" x="810.5" y="977"/><ellipse cx="838.55" cy="993" fill="#ADD1B2" rx="11" ry="11" style="stroke:#181818;stroke-width:1.0;"/><path d="M841.5188,998.6406 Q840.9406,998.9375 840.3,999.0781 Q839.6594,999.2344 838.9563,999.2344 Q836.4563,999.2344 835.1281,997.5938 Q833.8156,995.9375 833.8156,992.8125 Q833.8156,989.6875 835.1281,988.0313 Q836.4563,986.375 838.9563,986.375 Q839.6594,986.375 840.3,986.5313 Q840.9563,986.6875 841.5188,986.9844 L841.5188,989.7031 Q840.8938,989.125 840.3,988.8594 Q839.7063,988.5781 839.0813,988.5781 Q837.7375,988.5781 837.05,989.6563 Q836.3625,990.7188 836.3625,992.8125 Q836.3625,994.9063 837.05,995.9844 Q837.7375,997.0469 839.0813,997.0469 Q839.7063,997.0469 840.3,996.7813 Q840.8938,996.5 841.5188,995.9219 L841.5188,998.6406 Z " fill="#000000"/><text fill="#000000" font-family="sans-serif" font-size="14" lengthAdjust="spacing" textLength="58" x="855.45" y="997.8467">Corazon</text><line style="stroke:#181818;stroke-width:0.5;" x1="811.5" x2="928.5" y1="1009" y2="1009"/><line style="stroke:#181818;stroke-width:0.5;" x1="811.5" x2="928.5" y1="1017" y2="1017"/><text fill="#000000" font-family="sans-serif" font-size="14" lengthAdjust="spacing" textLength="43" x="816.5" y="1033.9951">lleno()</text><text fill="#000000" font-family="sans-serif" font-size="14" lengthAdjust="spacing" textLength="107" x="816.5" y="1050.292">vaciarCorazon()</text><text fill="#000000" font-family="sans-serif" font-size="14" lengthAdjust="spacing" textLength="105" x="816.5" y="1066.5889">llenarCorazon()</text></g><g id="elem_caballero"><rect fill="#F1F1F1" height="44.5938" style="stroke:#181818;stroke-width:0.5;" width="96" x="780" y="546"/><text fill="#000000" font-family="sans-serif" font-size="14" lengthAdjust="spacing" textLength="62" x="797" y="560.9951">caballero</text><line style="stroke:#181818;stroke-width:0.5;" x1="781" x2="875" y1="566.2969" y2="566.2969"/><text fill="#000000" font-family="sans-serif" font-size="14" lengthAdjust="spacing" textLength="84" x="786" y="583.292">interactuar()</text></g><!--MD5=[10f7208285e895d29b83d5c6cd793474]
class Flecha--><g id="elem_Flecha"><rect codeLine="66" fill="#F1F1F1" height="113.1875" id="Flecha" rx="2.5" ry="2.5" style="stroke:#181818;stroke-width:0.5;" width="147" x="448.5" y="512"/><ellipse cx="495.25" cy="528" fill="#ADD1B2" rx="11" ry="11" style="stroke:#181818;stroke-width:1.0;"/><path d="M498.2188,533.6406 Q497.6406,533.9375 497,534.0781 Q496.3594,534.2344 495.6563,534.2344 Q493.1563,534.2344 491.8281,532.5938 Q490.5156,530.9375 490.5156,527.8125 Q490.5156,524.6875 491.8281,523.0313 Q493.1563,521.375 495.6563,521.375 Q496.3594,521.375 497,521.5313 Q497.6563,521.6875 498.2188,521.9844 L498.2188,524.7031 Q497.5938,524.125 497,523.8594 Q496.4063,523.5781 495.7813,523.5781 Q494.4375,523.5781 493.75,524.6563 Q493.0625,525.7188 493.0625,527.8125 Q493.0625,529.9063 493.75,530.9844 Q494.4375,532.0469 495.7813,532.0469 Q496.4063,532.0469 497,531.7813 Q497.5938,531.5 498.2188,530.9219 L498.2188,533.6406 Z " fill="#000000"/><text fill="#000000" font-family="sans-serif" font-size="14" lengthAdjust="spacing" textLength="45" x="515.75" y="532.8467">Flecha</text><line style="stroke:#181818;stroke-width:0.5;" x1="449.5" x2="594.5" y1="544" y2="544"/><line style="stroke:#181818;stroke-width:0.5;" x1="449.5" x2="594.5" y1="552" y2="552"/><text fill="#000000" font-family="sans-serif" font-size="14" lengthAdjust="spacing" textLength="135" x="454.5" y="568.9951">flechaIntermitente()</text><text fill="#000000" font-family="sans-serif" font-size="14" lengthAdjust="spacing" textLength="115" x="454.5" y="585.292">cambiarImagen()</text><text fill="#000000" font-family="sans-serif" font-size="14" lengthAdjust="spacing" textLength="79" x="454.5" y="601.5889">moverBox()</text><text fill="#000000" font-family="sans-serif" font-size="14" lengthAdjust="spacing" textLength="84" x="454.5" y="617.8857">interactuar()</text></g><g id="elem_mago"><rect fill="#F1F1F1" height="93.4844" style="stroke:#181818;stroke-width:0.5;" width="136" x="607" y="324.5"/><text fill="#000000" font-family="sans-serif" font-size="14" lengthAdjust="spacing" textLength="39" x="655.5" y="339.4951">mago</text><line style="stroke:#181818;stroke-width:0.5;" x1="608" x2="742" y1="344.7969" y2="344.7969"/><text fill="#000000" font-family="sans-serif" font-size="14" lengthAdjust="spacing" textLength="65" x="613" y="361.792">disparar()</text><text fill="#000000" font-family="sans-serif" font-size="14" lengthAdjust="spacing" textLength="89" x="613" y="378.0889">crearFuego()</text><text fill="#000000" font-family="sans-serif" font-size="14" lengthAdjust="spacing" textLength="84" x="613" y="394.3857">interactuar()</text><text fill="#000000" font-family="sans-serif" font-size="14" lengthAdjust="spacing" textLength="124" x="613" y="410.6826">quemarse(objeto)</text></g><!--MD5=[bc5069084680bc0fe210a53cac690a93]
class FuegoMago--><g id="elem_FuegoMago"><rect codeLine="80" fill="#F1F1F1" height="80.5938" id="FuegoMago" rx="2.5" ry="2.5" style="stroke:#181818;stroke-width:0.5;" width="114" x="631" y="528"/><ellipse cx="646" cy="544" fill="#ADD1B2" rx="11" ry="11" style="stroke:#181818;stroke-width:1.0;"/><path d="M648.9688,549.6406 Q648.3906,549.9375 647.75,550.0781 Q647.1094,550.2344 646.4063,550.2344 Q643.9063,550.2344 642.5781,548.5938 Q641.2656,546.9375 641.2656,543.8125 Q641.2656,540.6875 642.5781,539.0313 Q643.9063,537.375 646.4063,537.375 Q647.1094,537.375 647.75,537.5313 Q648.4063,537.6875 648.9688,537.9844 L648.9688,540.7031 Q648.3438,540.125 647.75,539.8594 Q647.1563,539.5781 646.5313,539.5781 Q645.1875,539.5781 644.5,540.6563 Q643.8125,541.7188 643.8125,543.8125 Q643.8125,545.9063 644.5,546.9844 Q645.1875,548.0469 646.5313,548.0469 Q647.1563,548.0469 647.75,547.7813 Q648.3438,547.5 648.9688,546.9219 L648.9688,549.6406 Z " fill="#000000"/><text fill="#000000" font-family="sans-serif" font-size="14" lengthAdjust="spacing" textLength="82" x="660" y="548.8467">FuegoMago</text><line style="stroke:#181818;stroke-width:0.5;" x1="632" x2="744" y1="560" y2="560"/><line style="stroke:#181818;stroke-width:0.5;" x1="632" x2="744" y1="568" y2="568"/><text fill="#000000" font-family="sans-serif" font-size="14" lengthAdjust="spacing" textLength="70" x="637" y="584.9951">moverse()</text><text fill="#000000" font-family="sans-serif" font-size="14" lengthAdjust="spacing" textLength="84" x="637" y="601.292">interactuar()</text></g><!--MD5=[3051a6a8f877a755a60c7cfd1e6f410a]
class Objeto--><g id="elem_Objeto"><rect codeLine="85" fill="#F1F1F1" height="80.5938" id="Objeto" rx="2.5" ry="2.5" style="stroke:#181818;stroke-width:0.5;" width="96" x="1106" y="1134"/><ellipse cx="1129.1" cy="1150" fill="#ADD1B2" rx="11" ry="11" style="stroke:#181818;stroke-width:1.0;"/><path d="M1132.0688,1155.6406 Q1131.4906,1155.9375 1130.85,1156.0781 Q1130.2094,1156.2344 1129.5063,1156.2344 Q1127.0063,1156.2344 1125.6781,1154.5938 Q1124.3656,1152.9375 1124.3656,1149.8125 Q1124.3656,1146.6875 1125.6781,1145.0313 Q1127.0063,1143.375 1129.5063,1143.375 Q1130.2094,1143.375 1130.85,1143.5313 Q1131.5063,1143.6875 1132.0688,1143.9844 L1132.0688,1146.7031 Q1131.4438,1146.125 1130.85,1145.8594 Q1130.2563,1145.5781 1129.6313,1145.5781 Q1128.2875,1145.5781 1127.6,1146.6563 Q1126.9125,1147.7188 1126.9125,1149.8125 Q1126.9125,1151.9063 1127.6,1152.9844 Q1128.2875,1154.0469 1129.6313,1154.0469 Q1130.2563,1154.0469 1130.85,1153.7813 Q1131.4438,1153.5 1132.0688,1152.9219 L1132.0688,1155.6406 Z " fill="#000000"/><text fill="#000000" font-family="sans-serif" font-size="14" lengthAdjust="spacing" textLength="46" x="1144.9" y="1154.8467">Objeto</text><line style="stroke:#181818;stroke-width:0.5;" x1="1107" x2="1201" y1="1166" y2="1166"/><line style="stroke:#181818;stroke-width:0.5;" x1="1107" x2="1201" y1="1174" y2="1174"/><text fill="#000000" font-family="sans-serif" font-size="14" lengthAdjust="spacing" textLength="84" x="1112" y="1190.9951">interactuar()</text><text fill="#000000" font-family="sans-serif" font-size="14" lengthAdjust="spacing" textLength="40" x="1112" y="1207.292">usar()</text></g><g id="elem_caja"><rect fill="#F1F1F1" height="60.8906" style="stroke:#181818;stroke-width:0.5;" width="99" x="1104.5" y="995"/><text fill="#000000" font-family="sans-serif" font-size="14" lengthAdjust="spacing" textLength="27" x="1140.5" y="1009.9951">caja</text><line style="stroke:#181818;stroke-width:0.5;" x1="1105.5" x2="1202.5" y1="1015.2969" y2="1015.2969"/><text fill="#000000" font-family="sans-serif" font-size="14" lengthAdjust="spacing" textLength="87" x="1110.5" y="1032.292">tocarBoton()</text><text fill="#000000" font-family="sans-serif" font-size="14" lengthAdjust="spacing" textLength="84" x="1110.5" y="1048.5889">interactuar()</text></g><g id="elem_banderaRoja"><rect fill="#F1F1F1" height="60.8906" style="stroke:#181818;stroke-width:0.5;" width="101" x="1238.5" y="995"/><text fill="#000000" font-family="sans-serif" font-size="14" lengthAdjust="spacing" textLength="87" x="1245.5" y="1009.9951">banderaRoja</text><line style="stroke:#181818;stroke-width:0.5;" x1="1239.5" x2="1338.5" y1="1015.2969" y2="1015.2969"/><text fill="#000000" font-family="sans-serif" font-size="14" lengthAdjust="spacing" textLength="66" x="1244.5" y="1032.292">pasoNivel</text><text fill="#000000" font-family="sans-serif" font-size="14" lengthAdjust="spacing" textLength="84" x="1244.5" y="1048.5889">interactuar()</text></g><!--MD5=[32b932b39b07945242e92864b6aaf819]
class ObjetoUsable--><g id="elem_ObjetoUsable"><rect codeLine="103" fill="#F1F1F1" height="96.8906" id="ObjetoUsable" rx="2.5" ry="2.5" style="stroke:#181818;stroke-width:0.5;" width="137" x="162.5" y="977"/><ellipse cx="182.9" cy="993" fill="#ADD1B2" rx="11" ry="11" style="stroke:#181818;stroke-width:1.0;"/><path d="M185.8688,998.6406 Q185.2906,998.9375 184.65,999.0781 Q184.0094,999.2344 183.3063,999.2344 Q180.8063,999.2344 179.4781,997.5938 Q178.1656,995.9375 178.1656,992.8125 Q178.1656,989.6875 179.4781,988.0313 Q180.8063,986.375 183.3063,986.375 Q184.0094,986.375 184.65,986.5313 Q185.3063,986.6875 185.8688,986.9844 L185.8688,989.7031 Q185.2438,989.125 184.65,988.8594 Q184.0563,988.5781 183.4313,988.5781 Q182.0875,988.5781 181.4,989.6563 Q180.7125,990.7188 180.7125,992.8125 Q180.7125,994.9063 181.4,995.9844 Q182.0875,997.0469 183.4313,997.0469 Q184.0563,997.0469 184.65,996.7813 Q185.2438,996.5 185.8688,995.9219 L185.8688,998.6406 Z " fill="#000000"/><text fill="#000000" font-family="sans-serif" font-size="14" lengthAdjust="spacing" textLength="93" x="198.1" y="997.8467">ObjetoUsable</text><line style="stroke:#181818;stroke-width:0.5;" x1="163.5" x2="298.5" y1="1009" y2="1009"/><line style="stroke:#181818;stroke-width:0.5;" x1="163.5" x2="298.5" y1="1017" y2="1017"/><text fill="#000000" font-family="sans-serif" font-size="14" lengthAdjust="spacing" textLength="84" x="168.5" y="1033.9951">interactuar()</text><text fill="#000000" font-family="sans-serif" font-size="14" lengthAdjust="spacing" textLength="125" x="168.5" y="1050.292">equipar(direccion)</text><text fill="#000000" font-family="sans-serif" font-size="14" lengthAdjust="spacing" textLength="82" x="168.5" y="1066.5889">tirarObjeto()</text></g><g id="elem_kit"><rect fill="#F1F1F1" height="36.2969" style="stroke:#181818;stroke-width:0.5;" width="30" x="133" y="787"/><text fill="#000000" font-family="sans-serif" font-size="14" lengthAdjust="spacing" textLength="16" x="140" y="801.9951">kit</text><line style="stroke:#181818;stroke-width:0.5;" x1="134" x2="162" y1="807.2969" y2="807.2969"/></g><g id="elem_espada"><rect fill="#F1F1F1" height="36.2969" style="stroke:#181818;stroke-width:0.5;" width="65" x="198.5" y="787"/><text fill="#000000" font-family="sans-serif" font-size="14" lengthAdjust="spacing" textLength="51" x="205.5" y="801.9951">espada</text><line style="stroke:#181818;stroke-width:0.5;" x1="199.5" x2="262.5" y1="807.2969" y2="807.2969"/></g><g id="elem_escudo"><rect fill="#F1F1F1" height="36.2969" style="stroke:#181818;stroke-width:0.5;" width="66" x="299" y="787"/><text fill="#000000" font-family="sans-serif" font-size="14" lengthAdjust="spacing" textLength="52" x="306" y="801.9951">escudo</text><line style="stroke:#181818;stroke-width:0.5;" x1="300" x2="364" y1="807.2969" y2="807.2969"/></g><g id="elem_varita"><rect fill="#F1F1F1" height="36.2969" style="stroke:#181818;stroke-width:0.5;" width="50" x="400" y="787"/><text fill="#000000" font-family="sans-serif" font-size="14" lengthAdjust="spacing" textLength="36" x="407" y="801.9951">varita</text><line style="stroke:#181818;stroke-width:0.5;" x1="401" x2="449" y1="807.2969" y2="807.2969"/></g><!--MD5=[624bd6129f9f6c861bf41a49a0d91817]
class FuegoBala--><g id="elem_FuegoBala"><rect codeLine="121" fill="#F1F1F1" height="64.2969" id="FuegoBala" rx="2.5" ry="2.5" style="stroke:#181818;stroke-width:0.5;" width="105" x="964.5" y="993.5"/><ellipse cx="979.5" cy="1009.5" fill="#ADD1B2" rx="11" ry="11" style="stroke:#181818;stroke-width:1.0;"/><path d="M982.4688,1015.1406 Q981.8906,1015.4375 981.25,1015.5781 Q980.6094,1015.7344 979.9063,1015.7344 Q977.4063,1015.7344 976.0781,1014.0938 Q974.7656,1012.4375 974.7656,1009.3125 Q974.7656,1006.1875 976.0781,1004.5313 Q977.4063,1002.875 979.9063,1002.875 Q980.6094,1002.875 981.25,1003.0313 Q981.9063,1003.1875 982.4688,1003.4844 L982.4688,1006.2031 Q981.8438,1005.625 981.25,1005.3594 Q980.6563,1005.0781 980.0313,1005.0781 Q978.6875,1005.0781 978,1006.1563 Q977.3125,1007.2188 977.3125,1009.3125 Q977.3125,1011.4063 978,1012.4844 Q978.6875,1013.5469 980.0313,1013.5469 Q980.6563,1013.5469 981.25,1013.2813 Q981.8438,1013 982.4688,1012.4219 L982.4688,1015.1406 Z " fill="#000000"/><text fill="#000000" font-family="sans-serif" font-size="14" lengthAdjust="spacing" textLength="73" x="993.5" y="1014.3467">FuegoBala</text><line style="stroke:#181818;stroke-width:0.5;" x1="965.5" x2="1068.5" y1="1025.5" y2="1025.5"/><line style="stroke:#181818;stroke-width:0.5;" x1="965.5" x2="1068.5" y1="1033.5" y2="1033.5"/><text fill="#000000" font-family="sans-serif" font-size="14" lengthAdjust="spacing" textLength="70" x="970.5" y="1050.4951">moverse()</text></g><!--MD5=[0b927d44f7e24b313e0a6d3021c10a6e]
class Bloque--><g id="elem_Bloque"><rect codeLine="125" fill="#F1F1F1" height="48" id="Bloque" rx="2.5" ry="2.5" style="stroke:#181818;stroke-width:0.5;" width="81" x="1374.5" y="1001.5"/><ellipse cx="1389.5" cy="1017.5" fill="#ADD1B2" rx="11" ry="11" style="stroke:#181818;stroke-width:1.0;"/><path d="M1392.4688,1023.1406 Q1391.8906,1023.4375 1391.25,1023.5781 Q1390.6094,1023.7344 1389.9063,1023.7344 Q1387.4063,1023.7344 1386.0781,1022.0938 Q1384.7656,1020.4375 1384.7656,1017.3125 Q1384.7656,1014.1875 1386.0781,1012.5313 Q1387.4063,1010.875 1389.9063,1010.875 Q1390.6094,1010.875 1391.25,1011.0313 Q1391.9063,1011.1875 1392.4688,1011.4844 L1392.4688,1014.2031 Q1391.8438,1013.625 1391.25,1013.3594 Q1390.6563,1013.0781 1390.0313,1013.0781 Q1388.6875,1013.0781 1388,1014.1563 Q1387.3125,1015.2188 1387.3125,1017.3125 Q1387.3125,1019.4063 1388,1020.4844 Q1388.6875,1021.5469 1390.0313,1021.5469 Q1390.6563,1021.5469 1391.25,1021.2813 Q1391.8438,1021 1392.4688,1020.4219 L1392.4688,1023.1406 Z " fill="#000000"/><text fill="#000000" font-family="sans-serif" font-size="14" lengthAdjust="spacing" textLength="49" x="1403.5" y="1022.3467">Bloque</text><line style="stroke:#181818;stroke-width:0.5;" x1="1375.5" x2="1454.5" y1="1033.5" y2="1033.5"/><line style="stroke:#181818;stroke-width:0.5;" x1="1375.5" x2="1454.5" y1="1041.5" y2="1041.5"/></g><!--MD5=[32747c1d1c8b91510c81fb4490643105]
class Fuego--><g id="elem_Fuego"><rect codeLine="127" fill="#F1F1F1" height="96.8906" id="Fuego" rx="2.5" ry="2.5" style="stroke:#181818;stroke-width:0.5;" width="146" x="7" y="520"/><ellipse cx="53.75" cy="536" fill="#ADD1B2" rx="11" ry="11" style="stroke:#181818;stroke-width:1.0;"/><path d="M56.7188,541.6406 Q56.1406,541.9375 55.5,542.0781 Q54.8594,542.2344 54.1563,542.2344 Q51.6563,542.2344 50.3281,540.5938 Q49.0156,538.9375 49.0156,535.8125 Q49.0156,532.6875 50.3281,531.0313 Q51.6563,529.375 54.1563,529.375 Q54.8594,529.375 55.5,529.5313 Q56.1563,529.6875 56.7188,529.9844 L56.7188,532.7031 Q56.0938,532.125 55.5,531.8594 Q54.9063,531.5781 54.2813,531.5781 Q52.9375,531.5781 52.25,532.6563 Q51.5625,533.7188 51.5625,535.8125 Q51.5625,537.9063 52.25,538.9844 Q52.9375,540.0469 54.2813,540.0469 Q54.9063,540.0469 55.5,539.7813 Q56.0938,539.5 56.7188,538.9219 L56.7188,541.6406 Z " fill="#000000"/><text fill="#000000" font-family="sans-serif" font-size="14" lengthAdjust="spacing" textLength="44" x="74.25" y="540.8467">Fuego</text><line style="stroke:#181818;stroke-width:0.5;" x1="8" x2="152" y1="552" y2="552"/><line style="stroke:#181818;stroke-width:0.5;" x1="8" x2="152" y1="560" y2="560"/><text fill="#000000" font-family="sans-serif" font-size="14" lengthAdjust="spacing" textLength="134" x="13" y="576.9951">fuegoIntermitente()</text><text fill="#000000" font-family="sans-serif" font-size="14" lengthAdjust="spacing" textLength="37" x="13" y="593.292">titila()</text><text fill="#000000" font-family="sans-serif" font-size="14" lengthAdjust="spacing" textLength="84" x="13" y="609.5889">interactuar()</text></g><!--MD5=[1c5db2d127c559c3d3f9dba0600b96b3]
class Pinche--><g id="elem_Pinche"><rect codeLine="133" fill="#F1F1F1" height="129.4844" id="Pinche" rx="2.5" ry="2.5" style="stroke:#181818;stroke-width:0.5;" width="153" x="188.5" y="504"/><ellipse cx="237.25" cy="520" fill="#ADD1B2" rx="11" ry="11" style="stroke:#181818;stroke-width:1.0;"/><path d="M240.2188,525.6406 Q239.6406,525.9375 239,526.0781 Q238.3594,526.2344 237.6563,526.2344 Q235.1563,526.2344 233.8281,524.5938 Q232.5156,522.9375 232.5156,519.8125 Q232.5156,516.6875 233.8281,515.0313 Q235.1563,513.375 237.6563,513.375 Q238.3594,513.375 239,513.5313 Q239.6563,513.6875 240.2188,513.9844 L240.2188,516.7031 Q239.5938,516.125 239,515.8594 Q238.4063,515.5781 237.7813,515.5781 Q236.4375,515.5781 235.75,516.6563 Q235.0625,517.7188 235.0625,519.8125 Q235.0625,521.9063 235.75,522.9844 Q236.4375,524.0469 237.7813,524.0469 Q238.4063,524.0469 239,523.7813 Q239.5938,523.5 240.2188,522.9219 L240.2188,525.6406 Z " fill="#000000"/><text fill="#000000" font-family="sans-serif" font-size="14" lengthAdjust="spacing" textLength="47" x="257.75" y="524.8467">Pinche</text><line style="stroke:#181818;stroke-width:0.5;" x1="189.5" x2="340.5" y1="536" y2="536"/><line style="stroke:#181818;stroke-width:0.5;" x1="189.5" x2="340.5" y1="544" y2="544"/><text fill="#000000" font-family="sans-serif" font-size="14" lengthAdjust="spacing" textLength="112" x="194.5" y="560.9951">cambiarEstado()</text><text fill="#000000" font-family="sans-serif" font-size="14" lengthAdjust="spacing" textLength="141" x="194.5" y="577.292">pincheIntermitente()</text><text fill="#000000" font-family="sans-serif" font-size="14" lengthAdjust="spacing" textLength="84" x="194.5" y="593.5889">interactuar()</text><text fill="#000000" font-family="sans-serif" font-size="14" lengthAdjust="spacing" textLength="90" x="194.5" y="609.8857">bajarPinche()</text><text fill="#000000" font-family="sans-serif" font-size="14" lengthAdjust="spacing" textLength="91" x="194.5" y="626.1826">subirPinche()</text></g><!--MD5=[6b66d2c3c988507054d602aec971873c]
link caja to Objeto--><g id="link_caja_Objeto"><path codeLine="100" d="M1154,1056.25 C1154,1072.72 1154,1093.81 1154,1113.55 " fill="none" id="caja-to-Objeto" style="stroke:#181818;stroke-width:1.0;"/><polygon fill="none" points="1161,1113.76,1154,1133.76,1147,1113.76,1161,1113.76" style="stroke:#181818;stroke-width:1.0;"/></g><!--MD5=[45612592915251ced464643374ae14dc]
link banderaRoja to Objeto--><g id="link_banderaRoja_Objeto"><path codeLine="101" d="M1261.68,1056.25 C1245.19,1074.2 1223.67,1097.64 1204.2,1118.84 " fill="none" id="banderaRoja-to-Objeto" style="stroke:#181818;stroke-width:1.0;"/><polygon fill="none" points="1209.18,1123.77,1190.49,1133.76,1198.87,1114.3,1209.18,1123.77" style="stroke:#181818;stroke-width:1.0;"/></g><!--MD5=[89e4df4565b45efd217ffd8baea03f47]
link ObjetoUsable to Objeto--><g id="link_ObjetoUsable_Objeto"><path codeLine="109" d="M299.91,1067.49 C305.58,1069.95 311.32,1072.17 317,1074 C591.87,1162.5 940.31,1173.68 1085.58,1174.16 " fill="none" id="ObjetoUsable-to-Objeto" style="stroke:#181818;stroke-width:1.0;"/><polygon fill="none" points="1085.91,1167.16,1105.91,1174.16,1085.91,1181.16,1085.91,1167.16" style="stroke:#181818;stroke-width:1.0;"/></g><!--MD5=[8e733a24c53d8cc48ad3f99aa405867e]
link kit to ObjetoUsable--><g id="link_kit_ObjetoUsable"><path codeLine="116" d="M152.27,823.18 C157.94,845.22 168.68,884.48 181,917 C186.15,930.61 192.28,944.89 198.43,958.45 " fill="none" id="kit-to-ObjetoUsable" style="stroke:#181818;stroke-width:1.0;"/><polygon fill="none" points="204.97,955.9,207.07,976.98,192.28,961.81,204.97,955.9" style="stroke:#181818;stroke-width:1.0;"/></g><!--MD5=[406c3c8c0b84f5660fbdaec7e2da5114]
link espada to ObjetoUsable--><g id="link_espada_ObjetoUsable"><path codeLine="117" d="M231,823.15 C231,851.56 231,909.91 231,956.52 " fill="none" id="espada-to-ObjetoUsable" style="stroke:#181818;stroke-width:1.0;"/><polygon fill="none" points="238,956.63,231,976.63,224,956.63,238,956.63" style="stroke:#181818;stroke-width:1.0;"/></g><!--MD5=[8f8a835be063b254a864b9ad0468606c]
link escudo to ObjetoUsable--><g id="link_escudo_ObjetoUsable"><path codeLine="118" d="M324.07,823.32 C314.07,845.16 296.31,883.89 281,917 C274.77,930.49 268.07,944.92 261.67,958.68 " fill="none" id="escudo-to-ObjetoUsable" style="stroke:#181818;stroke-width:1.0;"/><polygon fill="none" points="267.98,961.71,253.2,976.89,255.29,955.81,267.98,961.71" style="stroke:#181818;stroke-width:1.0;"/></g><!--MD5=[c7981cf237455cf693859a7ff6b136ed]
link varita to ObjetoUsable--><g id="link_varita_ObjetoUsable"><path codeLine="119" d="M421.57,823.33 C416.28,846.59 404.33,888.28 382,917 C364.11,940.01 339.98,960.19 316.27,976.67 " fill="none" id="varita-to-ObjetoUsable" style="stroke:#181818;stroke-width:1.0;"/><polygon fill="none" points="320.12,982.51,299.58,987.73,312.38,970.84,320.12,982.51" style="stroke:#181818;stroke-width:1.0;"/></g><!--MD5=[dcc9ecd6d28cd948c15d956e1313439f]
link Fuego to Objeto--><g id="link_Fuego_Objeto"><path codeLine="141" d="M68.62,617.3 C47.61,718.77 15.89,956.08 145,1074 C214.42,1137.4 870.66,1164.28 1085.95,1171.44 " fill="none" id="Fuego-to-Objeto" style="stroke:#181818;stroke-width:1.0;"/><polygon fill="none" points="1086.19,1164.44,1105.96,1172.09,1085.74,1178.43,1086.19,1164.44" style="stroke:#181818;stroke-width:1.0;"/></g><!--MD5=[10718489535a870fb90a72363be7bb77]
link Bloque to Objeto--><g id="link_Bloque_Objeto"><path codeLine="142" d="M1389.41,1049.6 C1379.65,1057.83 1368.17,1066.83 1357,1074 C1313.52,1101.93 1261.08,1127.44 1220.39,1145.64 " fill="none" id="Bloque-to-Objeto" style="stroke:#181818;stroke-width:1.0;"/><polygon fill="none" points="1223.14,1152.08,1202.02,1153.72,1217.51,1139.26,1223.14,1152.08" style="stroke:#181818;stroke-width:1.0;"/></g><!--MD5=[b059aa3e566f9595039f6dee79e984a2]
link mago to FuegoMago--><g id="link_mago_FuegoMago"><path codeLine="144" d="M678.05,417.84 C680.15,449.42 682.92,491.18 685.01,522.56 " fill="none" id="mago-to-FuegoMago" style="stroke:#181818;stroke-width:1.0;"/><polygon fill="#181818" points="685.37,527.9,688.7695,518.6564,685.0412,522.9108,680.7868,519.1825,685.37,527.9" style="stroke:#181818;stroke-width:1.0;"/><text fill="#000000" font-family="sans-serif" font-size="13" lengthAdjust="spacing" textLength="7" x="677.3547" y="517.045">*</text></g><!--MD5=[1e846ac3802717eb8670265d2aab306a]
link caballero to personaje--><g id="link_caballero_personaje"><path codeLine="146" d="M809.17,591.14 C787.04,616.59 748.72,660.63 712.67,702.07 " fill="none" id="caballero-to-personaje" style="stroke:#181818;stroke-width:1.0;stroke-dasharray:7.0,7.0;"/><polygon fill="none" points="717.94,706.69,699.53,717.18,707.37,697.5,717.94,706.69" style="stroke:#181818;stroke-width:1.0;"/></g><!--MD5=[f152518405c1a4395c470f40297a3d62]
link FuegoMago to personaje--><g id="link_FuegoMago_personaje"><path codeLine="147" d="M677.22,609.01 C672.24,627.26 666.01,650.07 659.59,673.6 " fill="none" id="FuegoMago-to-personaje" style="stroke:#181818;stroke-width:1.0;stroke-dasharray:7.0,7.0;"/><polygon fill="none" points="666.32,675.54,654.3,692.99,652.81,671.85,666.32,675.54" style="stroke:#181818;stroke-width:1.0;"/></g><!--MD5=[618f844f4560a83b0c9f0fde51fa88b3]
link Flecha to personaje--><g id="link_Flecha_personaje"><path codeLine="148" d="M546.17,625.07 C552.7,640.07 560.04,656.95 567.54,674.2 " fill="none" id="Flecha-to-personaje" style="stroke:#181818;stroke-width:1.0;stroke-dasharray:7.0,7.0;"/><polygon fill="none" points="573.99,671.48,575.55,692.61,561.15,677.07,573.99,671.48" style="stroke:#181818;stroke-width:1.0;"/></g><!--MD5=[ca71efaeb64d1febd3a17a11821df117]
link personaje to izquierda--><g id="link_personaje_izquierda"><path codeLine="150" d="M583.81,917.17 C572.87,947.43 562,977.49 554.56,998.06 " fill="none" id="personaje-to-izquierda" style="stroke:#181818;stroke-width:1.0;"/><polygon fill="#181818" points="552.84,1002.82,559.6627,995.7172,554.5407,998.1181,552.1397,992.9961,552.84,1002.82" style="stroke:#181818;stroke-width:1.0;"/><text fill="#000000" font-family="sans-serif" font-size="13" lengthAdjust="spacing" textLength="7" x="547.0064" y="991.8485">*</text></g><!--MD5=[55b1981c05c9b9aa1f888afe4d2ce309]
link personaje to derecha--><g id="link_personaje_derecha"><path codeLine="151" d="M548.36,877.55 C504.11,919.4 450.95,969.68 419.69,999.25 " fill="none" id="personaje-to-derecha" style="stroke:#181818;stroke-width:1.0;"/><polygon fill="#181818" points="415.99,1002.76,425.2789,999.4863,419.6243,999.326,419.7845,993.6715,415.99,1002.76" style="stroke:#181818;stroke-width:1.0;"/><text fill="#000000" font-family="sans-serif" font-size="13" lengthAdjust="spacing" textLength="7" x="414.2279" y="991.7723">*</text></g><!--MD5=[d681ef8c9a5f04b678f0809fcc061375]
link personaje to vacio--><g id="link_personaje_vacio"><path codeLine="152" d="M666.23,917.17 C676.31,943.72 686.34,970.11 693.93,990.09 " fill="none" id="personaje-to-vacio" style="stroke:#181818;stroke-width:1.0;"/><polygon fill="#181818" points="695.7,994.76,696.249,984.9265,693.9272,990.0848,688.7688,987.763,695.7,994.76" style="stroke:#181818;stroke-width:1.0;"/><text fill="#000000" font-family="sans-serif" font-size="13" lengthAdjust="spacing" textLength="7" x="685.6475" y="983.9649">*</text></g><!--MD5=[e96353ad0f0f4fafa3befb9bbd1c6c12]
link personaje to Corazon--><g id="link_personaje_Corazon"><path codeLine="153" d="M699.82,873.34 C736.04,905.51 778.69,943.4 812.24,973.19 " fill="none" id="personaje-to-Corazon" style="stroke:#181818;stroke-width:1.0;"/><polygon fill="#181818" points="816.28,976.79,812.2299,967.8124,812.5501,973.4602,806.9023,973.7803,816.28,976.79" style="stroke:#181818;stroke-width:1.0;"/><text fill="#000000" font-family="sans-serif" font-size="13" lengthAdjust="spacing" textLength="7" x="801.2334" y="965.9694">*</text></g><!--MD5=[ce274bb85c483d214dbf22d600abd57d]
link personaje to FuegoBala--><g id="link_personaje_FuegoBala"><path codeLine="154" d="M699.69,843.12 C765.98,876.32 864.36,927.29 947,977 C949.9,978.74 952.84,980.56 955.8,982.42 " fill="none" id="personaje-to-FuegoBala" style="stroke:#181818;stroke-width:1.0;stroke-dasharray:7.0,7.0;"/><polygon fill="none" points="959.69,976.6,972.66,993.35,952.07,988.34,959.69,976.6" style="stroke:#181818;stroke-width:1.0;"/></g><!--MD5=[39c6c889573a08f72b5d44d2fb3285a6]
link personaje to ObjetoUsable--><g id="link_personaje_ObjetoUsable"><path codeLine="155" d="M548.48,864.8 C523.36,882.86 494.71,901.93 467,917 C408.85,948.62 385.58,946.8 317.84,977.17 " fill="none" id="personaje-to-ObjetoUsable" style="stroke:#181818;stroke-width:1.0;stroke-dasharray:7.0,7.0;"/><polygon fill="none" points="320.7,983.56,299.61,985.62,314.81,970.86,320.7,983.56" style="stroke:#181818;stroke-width:1.0;"/></g><!--MD5=[f61a165a3581720e53a85905ec56e489]
link inicioManager to juego--><g id="link_inicioManager_juego"><path codeLine="157" d="M663,52.29 C663,66.97 663,87.17 663,106.91 " fill="none" id="inicioManager-to-juego" style="stroke:#181818;stroke-width:1.0;stroke-dasharray:7.0,7.0;"/><polygon fill="#181818" points="663,111.91,667,102.91,663,106.91,659,102.91,663,111.91" style="stroke:#181818;stroke-width:1.0;"/></g><!--MD5=[7662ddb874be07eb4315fb51fd5b5830]
link juego to Nivel--><g id="link_juego_Nivel"><path codeLine="158" d="M577.1,238.18 C544.72,261.62 508.01,288.19 476.08,311.3 " fill="none" id="juego-to-Nivel" style="stroke:#181818;stroke-width:1.0;"/><polygon fill="#181818" points="471.81,314.4,481.4452,312.3596,475.8592,311.4668,476.7521,305.8809,471.81,314.4" style="stroke:#181818;stroke-width:1.0;"/></g><!--MD5=[83d1e4cf196f176e551beb40d63d2e74]
link juego to mago--><g id="link_juego_mago"><path codeLine="159" d="M666.85,238.18 C668.47,264.36 670.33,294.44 671.86,319.25 " fill="none" id="juego-to-mago" style="stroke:#181818;stroke-width:1.0;"/><polygon fill="#181818" points="672.18,324.46,675.6059,315.2262,671.8654,319.4699,667.6217,315.7295,672.18,324.46" style="stroke:#181818;stroke-width:1.0;"/></g><!--MD5=[5a60c32d6d36ee43fd5d171f50fca2f8]
link Nivel to Fuego--><g id="link_Nivel_Fuego"><path codeLine="161" d="M318.43,415.18 C274.74,440.29 219.24,473.02 171,504 C168.69,505.48 166.36,507 164.01,508.54 " fill="none" id="Nivel-to-Fuego" style="stroke:#181818;stroke-width:1.0;stroke-dasharray:7.0,7.0;"/><polygon fill="none" points="167.71,514.48,147.19,519.76,159.94,502.83,167.71,514.48" style="stroke:#181818;stroke-width:1.0;"/></g><!--MD5=[a845ec8e890141d295c24dfc1a8c8509]
link Nivel to Pinche--><g id="link_Nivel_Pinche"><path codeLine="162" d="M346.96,444.24 C337.71,458.16 327.96,472.82 318.54,486.98 " fill="none" id="Nivel-to-Pinche" style="stroke:#181818;stroke-width:1.0;stroke-dasharray:7.0,7.0;"/><polygon fill="none" points="324.18,491.15,307.27,503.93,312.52,483.4,324.18,491.15" style="stroke:#181818;stroke-width:1.0;"/></g><!--MD5=[2783630c06ce65b9060622e5c37a9d5e]
link Nivel to personaje--><g id="link_Nivel_personaje"><path codeLine="163" d="M391.79,444.24 C392.36,499.08 399.81,574.72 431,633 C454.7,677.28 494.69,715.59 532.15,744.66 " fill="none" id="Nivel-to-personaje" style="stroke:#181818;stroke-width:1.0;stroke-dasharray:7.0,7.0;"/><polygon fill="none" points="536.46,739.15,548.27,756.74,528.06,750.35,536.46,739.15" style="stroke:#181818;stroke-width:1.0;"/></g><!--MD5=[70bed1309dbf456ffc8a6e41bee26cb2]
link Nivel to Flecha--><g id="link_Nivel_Flecha"><path codeLine="164" d="M441.93,444.24 C452.68,460.79 464.11,478.39 474.87,494.95 " fill="none" id="Nivel-to-Flecha" style="stroke:#181818;stroke-width:1.0;stroke-dasharray:7.0,7.0;"/><polygon fill="none" points="480.76,491.16,485.78,511.75,469.02,498.79,480.76,491.16" style="stroke:#181818;stroke-width:1.0;"/></g><!--MD5=[c9532940955ffd73c6357dfad841a78c]
link nivel0 to Nivel--><g id="link_nivel0_Nivel"><path codeLine="166" d="M313.9,193.22 C322.9,212.84 338.32,246.45 353.31,279.13 " fill="none" id="nivel0-to-Nivel" style="stroke:#181818;stroke-width:1.0;"/><polygon fill="none" points="359.82,276.52,361.79,297.62,347.09,282.36,359.82,276.52" style="stroke:#181818;stroke-width:1.0;"/></g><!--MD5=[0dbccec801dafdc4b2c8d8846816d712]
link nivel1 to Nivel--><g id="link_nivel1_Nivel"><path codeLine="167" d="M395,193.22 C395,212.48 395,245.2 395,277.3 " fill="none" id="nivel1-to-Nivel" style="stroke:#181818;stroke-width:1.0;"/><polygon fill="none" points="402,277.62,395,297.62,388,277.61,402,277.62" style="stroke:#181818;stroke-width:1.0;"/></g><!--MD5=[6aa8b4f19035336fc88f74758d35e10d]
link nivel2 to Nivel--><g id="link_nivel2_Nivel"><path codeLine="168" d="M476.1,193.22 C467.1,212.84 451.68,246.45 436.69,279.13 " fill="none" id="nivel2-to-Nivel" style="stroke:#181818;stroke-width:1.0;"/><polygon fill="none" points="442.91,282.36,428.21,297.62,430.18,276.52,442.91,282.36" style="stroke:#181818;stroke-width:1.0;"/></g><!--MD5=[a8d9298c845f1cb0bef1cc11233c125e]
@startuml
object inicioManager{
  inicializar()
}

object juego{
  nivelActual
  iniciar()
  siguienteNivel()
  interaccionesGenerales()
  configurarPersonaje()
  agregarInventario()
}

class Nivel{
   proximoNivel()
	agregarObstaculos()
	iniciar()
	agregarEnemigos()
	agregarObjetos()
	interacciones()
}

object nivel0
object nivel1
object nivel2

object personaje{
  posicionReaparicion
  direccion
  corazones
  inventario
  objetoEnMano
  
  derecha()
  izquierda()
  muere()
  sumarVida()
  restarVida()
  agachar()
  disparar()
}

object derecha{
  imagen(objeto)
}

object izquierda{
  imagen(objeto)
}

object vacio{
  equipar(direccion)
  usar()
}

class Corazon{
  lleno()
  vaciarCorazon()
  llenarCorazon()
}

object caballero{
  interactuar()
}

class Flecha{
  flechaIntermitente()
  cambiarImagen()
  moverBox()
  interactuar()
}

object mago{
  disparar()
  crearFuego()
  interactuar()
  quemarse(objeto)
}

class FuegoMago{
 moverse()
  interactuar()
}

class Objeto{
 interactuar()
  usar()
}

object caja{
  tocarBoton()
  interactuar()
}

object banderaRoja{
  pasoNivel
  interactuar() 
}

caja - -|> Objeto
banderaRoja - -|> Objeto

class ObjetoUsable{
  interactuar()
  equipar(direccion)
  tirarObjeto()
}

ObjetoUsable - -|> Objeto

object kit
object espada
object escudo
object varita

kit - -|> ObjetoUsable
espada - -|> ObjetoUsable
escudo - -|> ObjetoUsable
varita - -|> ObjetoUsable

class FuegoBala{
  moverse()
}

class Bloque

class Fuego{
  fuegoIntermitente()
  titila()
  interactuar()
}

class Pinche{
 cambiarEstado()
  pincheIntermitente()
  interactuar()
  bajarPinche()
  subirPinche()
}

Fuego - -|> Objeto
Bloque - -|> Objeto

mago - ->"*" FuegoMago

caballero ..|> personaje
FuegoMago ..|> personaje
Flecha ..|> personaje

personaje - ->"*" izquierda
personaje- ->"*" derecha
personaje - ->"*" vacio
personaje- ->"*" Corazon
personaje ..|> FuegoBala
personaje ..|> ObjetoUsable

inicioManager ..> juego
juego - -> Nivel
juego - -> mago

Nivel ..|> Fuego
Nivel ..|> Pinche
Nivel ..|> personaje
Nivel ..|> Flecha

nivel0 - -|> Nivel
nivel1 - -|> Nivel
nivel2 - -|> Nivel
@enduml

PlantUML version 1.2022.7(Mon Aug 22 17:01:30 UTC 2022)
(GPL source distribution)
Java Runtime: OpenJDK Runtime Environment
JVM: OpenJDK 64-Bit Server VM
Default Encoding: UTF-8
Language: en
Country: null
--></g></svg>