<?xml version="1.0" encoding="UTF-8" standalone="no"?><svg xmlns="http://www.w3.org/2000/svg" xmlns:xlink="http://www.w3.org/1999/xlink" contentStyleType="text/css" height="1289px" preserveAspectRatio="none" style="width:1488px;height:1289px;background:#FFFFFF;" version="1.1" viewBox="0 0 1488 1289" width="1488px" zoomAndPan="magnify"><defs/><g><g id="elem_inicioManager"><rect fill="#F1F1F1" height="44.5938" style="stroke:#181818;stroke-width:0.5;" width="109" x="528" y="49"/><text fill="#000000" font-family="sans-serif" font-size="14" lengthAdjust="spacing" textLength="95" x="535" y="63.9951">inicioManager</text><line style="stroke:#181818;stroke-width:0.5;" x1="529" x2="636" y1="69.2969" y2="69.2969"/><text fill="#000000" font-family="sans-serif" font-size="14" lengthAdjust="spacing" textLength="71" x="534" y="86.292">inicializar()</text></g><g id="elem_juego"><rect fill="#F1F1F1" height="126.0781" style="stroke:#181818;stroke-width:0.5;" width="186" x="489.5" y="196"/><text fill="#000000" font-family="sans-serif" font-size="14" lengthAdjust="spacing" textLength="39" x="563" y="210.9951">juego</text><line style="stroke:#181818;stroke-width:0.5;" x1="490.5" x2="674.5" y1="216.2969" y2="216.2969"/><text fill="#000000" font-family="sans-serif" font-size="14" lengthAdjust="spacing" textLength="73" x="495.5" y="233.292">nivelActual</text><text fill="#000000" font-family="sans-serif" font-size="14" lengthAdjust="spacing" textLength="49" x="495.5" y="249.5889">iniciar()</text><text fill="#000000" font-family="sans-serif" font-size="14" lengthAdjust="spacing" textLength="106" x="495.5" y="265.8857">siguienteNivel()</text><text fill="#000000" font-family="sans-serif" font-size="14" lengthAdjust="spacing" textLength="174" x="495.5" y="282.1826">interaccionesGenerales()</text><text fill="#000000" font-family="sans-serif" font-size="14" lengthAdjust="spacing" textLength="148" x="495.5" y="298.4795">configurarPersonaje()</text><text fill="#000000" font-family="sans-serif" font-size="14" lengthAdjust="spacing" textLength="130" x="495.5" y="314.7764">agregarInventario()</text></g><!--MD5=[d544e1720d36c287a1d38909fe06b56d]
class Nivel--><g id="elem_Nivel"><rect codeLine="14" fill="#F1F1F1" height="145.7813" id="Nivel" rx="2.5" ry="2.5" style="stroke:#181818;stroke-width:0.5;" width="153" x="301" y="382"/><ellipse cx="357.25" cy="398" fill="#ADD1B2" rx="11" ry="11" style="stroke:#181818;stroke-width:1.0;"/><path d="M360.2188,403.6406 Q359.6406,403.9375 359,404.0781 Q358.3594,404.2344 357.6563,404.2344 Q355.1563,404.2344 353.8281,402.5938 Q352.5156,400.9375 352.5156,397.8125 Q352.5156,394.6875 353.8281,393.0313 Q355.1563,391.375 357.6563,391.375 Q358.3594,391.375 359,391.5313 Q359.6563,391.6875 360.2188,391.9844 L360.2188,394.7031 Q359.5938,394.125 359,393.8594 Q358.4063,393.5781 357.7813,393.5781 Q356.4375,393.5781 355.75,394.6563 Q355.0625,395.7188 355.0625,397.8125 Q355.0625,399.9063 355.75,400.9844 Q356.4375,402.0469 357.7813,402.0469 Q358.4063,402.0469 359,401.7813 Q359.5938,401.5 360.2188,400.9219 L360.2188,403.6406 Z " fill="#000000"/><text fill="#000000" font-family="sans-serif" font-size="14" lengthAdjust="spacing" textLength="32" x="377.75" y="402.8467">Nivel</text><line style="stroke:#181818;stroke-width:0.5;" x1="302" x2="453" y1="414" y2="414"/><line style="stroke:#181818;stroke-width:0.5;" x1="302" x2="453" y1="422" y2="422"/><text fill="#000000" font-family="sans-serif" font-size="14" lengthAdjust="spacing" textLength="97" x="307" y="438.9951">proximoNivel()</text><text fill="#000000" font-family="sans-serif" font-size="14" lengthAdjust="spacing" textLength="141" x="307" y="455.292">agregarObstaculos()</text><text fill="#000000" font-family="sans-serif" font-size="14" lengthAdjust="spacing" textLength="49" x="307" y="471.5889">iniciar()</text><text fill="#000000" font-family="sans-serif" font-size="14" lengthAdjust="spacing" textLength="132" x="307" y="487.8857">agregarEnemigos()</text><text fill="#000000" font-family="sans-serif" font-size="14" lengthAdjust="spacing" textLength="117" x="307" y="504.1826">agregarObjetos()</text><text fill="#000000" font-family="sans-serif" font-size="14" lengthAdjust="spacing" textLength="103" x="307" y="520.4795">interacciones()</text></g><g id="elem_nivel0"><rect fill="#F1F1F1" height="36.2969" style="stroke:#181818;stroke-width:0.5;" width="54" x="222.5" y="241"/><text fill="#000000" font-family="sans-serif" font-size="14" lengthAdjust="spacing" textLength="40" x="229.5" y="255.9951">nivel0</text><line style="stroke:#181818;stroke-width:0.5;" x1="223.5" x2="275.5" y1="261.2969" y2="261.2969"/></g><g id="elem_nivel1"><rect fill="#F1F1F1" height="36.2969" style="stroke:#181818;stroke-width:0.5;" width="54" x="311.5" y="241"/><text fill="#000000" font-family="sans-serif" font-size="14" lengthAdjust="spacing" textLength="40" x="318.5" y="255.9951">nivel1</text><line style="stroke:#181818;stroke-width:0.5;" x1="312.5" x2="364.5" y1="261.2969" y2="261.2969"/></g><g id="elem_nivel2"><rect fill="#F1F1F1" height="36.2969" style="stroke:#181818;stroke-width:0.5;" width="54" x="400.5" y="241"/><text fill="#000000" font-family="sans-serif" font-size="14" lengthAdjust="spacing" textLength="40" x="407.5" y="255.9951">nivel2</text><line style="stroke:#181818;stroke-width:0.5;" x1="401.5" x2="453.5" y1="261.2969" y2="261.2969"/></g><g id="elem_personaje"><rect fill="#F1F1F1" height="223.8594" style="stroke:#181818;stroke-width:0.5;" width="151" x="424" y="761"/><text fill="#000000" font-family="sans-serif" font-size="14" lengthAdjust="spacing" textLength="69" x="465" y="775.9951">personaje</text><line style="stroke:#181818;stroke-width:0.5;" x1="425" x2="574" y1="781.2969" y2="781.2969"/><text fill="#000000" font-family="sans-serif" font-size="14" lengthAdjust="spacing" textLength="139" x="430" y="798.292">posicionReaparicion</text><text fill="#000000" font-family="sans-serif" font-size="14" lengthAdjust="spacing" textLength="63" x="430" y="814.5889">direccion</text><text fill="#000000" font-family="sans-serif" font-size="14" lengthAdjust="spacing" textLength="73" x="430" y="830.8857">corazones</text><text fill="#000000" font-family="sans-serif" font-size="14" lengthAdjust="spacing" textLength="67" x="430" y="847.1826">inventario</text><text fill="#000000" font-family="sans-serif" font-size="14" lengthAdjust="spacing" textLength="100" x="430" y="863.4795">objetoEnMano</text><text fill="#000000" font-family="sans-serif" font-size="14" lengthAdjust="spacing" textLength="67" x="430" y="879.7764">derecha()</text><text fill="#000000" font-family="sans-serif" font-size="14" lengthAdjust="spacing" textLength="73" x="430" y="896.0732">izquierda()</text><text fill="#000000" font-family="sans-serif" font-size="14" lengthAdjust="spacing" textLength="55" x="430" y="912.3701">muere()</text><text fill="#000000" font-family="sans-serif" font-size="14" lengthAdjust="spacing" textLength="82" x="430" y="928.667">sumarVida()</text><text fill="#000000" font-family="sans-serif" font-size="14" lengthAdjust="spacing" textLength="79" x="430" y="944.9639">restarVida()</text><text fill="#000000" font-family="sans-serif" font-size="14" lengthAdjust="spacing" textLength="65" x="430" y="961.2607">agachar()</text><text fill="#000000" font-family="sans-serif" font-size="14" lengthAdjust="spacing" textLength="65" x="430" y="977.5576">disparar()</text></g><g id="elem_derecha"><rect fill="#F1F1F1" height="44.5938" style="stroke:#181818;stroke-width:0.5;" width="117" x="7" y="1071"/><text fill="#000000" font-family="sans-serif" font-size="14" lengthAdjust="spacing" textLength="57" x="37" y="1085.9951">derecha</text><line style="stroke:#181818;stroke-width:0.5;" x1="8" x2="123" y1="1091.2969" y2="1091.2969"/><text fill="#000000" font-family="sans-serif" font-size="14" lengthAdjust="spacing" textLength="105" x="13" y="1108.292">imagen(objeto)</text></g><g id="elem_izquierda"><rect fill="#F1F1F1" height="44.5938" style="stroke:#181818;stroke-width:0.5;" width="117" x="159" y="1071"/><text fill="#000000" font-family="sans-serif" font-size="14" lengthAdjust="spacing" textLength="63" x="186" y="1085.9951">izquierda</text><line style="stroke:#181818;stroke-width:0.5;" x1="160" x2="275" y1="1091.2969" y2="1091.2969"/><text fill="#000000" font-family="sans-serif" font-size="14" lengthAdjust="spacing" textLength="105" x="165" y="1108.292">imagen(objeto)</text></g><g id="elem_vacio"><rect fill="#F1F1F1" height="60.8906" style="stroke:#181818;stroke-width:0.5;" width="137" x="311" y="1063"/><text fill="#000000" font-family="sans-serif" font-size="14" lengthAdjust="spacing" textLength="35" x="362" y="1077.9951">vacio</text><line style="stroke:#181818;stroke-width:0.5;" x1="312" x2="447" y1="1083.2969" y2="1083.2969"/><text fill="#000000" font-family="sans-serif" font-size="14" lengthAdjust="spacing" textLength="125" x="317" y="1100.292">equipar(direccion)</text><text fill="#000000" font-family="sans-serif" font-size="14" lengthAdjust="spacing" textLength="40" x="317" y="1116.5889">usar()</text></g><!--MD5=[bdfd9f38b6937c348946bb4c2fdd0f9e]
class Corazon--><g id="elem_Corazon"><rect codeLine="56" fill="#F1F1F1" height="96.8906" id="Corazon" rx="2.5" ry="2.5" style="stroke:#181818;stroke-width:0.5;" width="119" x="483" y="1045"/><ellipse cx="511.05" cy="1061" fill="#ADD1B2" rx="11" ry="11" style="stroke:#181818;stroke-width:1.0;"/><path d="M514.0188,1066.6406 Q513.4406,1066.9375 512.8,1067.0781 Q512.1594,1067.2344 511.4563,1067.2344 Q508.9563,1067.2344 507.6281,1065.5938 Q506.3156,1063.9375 506.3156,1060.8125 Q506.3156,1057.6875 507.6281,1056.0313 Q508.9563,1054.375 511.4563,1054.375 Q512.1594,1054.375 512.8,1054.5313 Q513.4563,1054.6875 514.0188,1054.9844 L514.0188,1057.7031 Q513.3938,1057.125 512.8,1056.8594 Q512.2063,1056.5781 511.5813,1056.5781 Q510.2375,1056.5781 509.55,1057.6563 Q508.8625,1058.7188 508.8625,1060.8125 Q508.8625,1062.9063 509.55,1063.9844 Q510.2375,1065.0469 511.5813,1065.0469 Q512.2063,1065.0469 512.8,1064.7813 Q513.3938,1064.5 514.0188,1063.9219 L514.0188,1066.6406 Z " fill="#000000"/><text fill="#000000" font-family="sans-serif" font-size="14" lengthAdjust="spacing" textLength="58" x="527.95" y="1065.8467">Corazon</text><line style="stroke:#181818;stroke-width:0.5;" x1="484" x2="601" y1="1077" y2="1077"/><line style="stroke:#181818;stroke-width:0.5;" x1="484" x2="601" y1="1085" y2="1085"/><text fill="#000000" font-family="sans-serif" font-size="14" lengthAdjust="spacing" textLength="43" x="489" y="1101.9951">lleno()</text><text fill="#000000" font-family="sans-serif" font-size="14" lengthAdjust="spacing" textLength="107" x="489" y="1118.292">vaciarCorazon()</text><text fill="#000000" font-family="sans-serif" font-size="14" lengthAdjust="spacing" textLength="105" x="489" y="1134.5889">llenarCorazon()</text></g><g id="elem_caballero"><rect fill="#F1F1F1" height="44.5938" style="stroke:#181818;stroke-width:0.5;" width="96" x="674.5" y="622"/><text fill="#000000" font-family="sans-serif" font-size="14" lengthAdjust="spacing" textLength="62" x="691.5" y="636.9951">caballero</text><line style="stroke:#181818;stroke-width:0.5;" x1="675.5" x2="769.5" y1="642.2969" y2="642.2969"/><text fill="#000000" font-family="sans-serif" font-size="14" lengthAdjust="spacing" textLength="84" x="680.5" y="659.292">interactuar()</text></g><!--MD5=[10f7208285e895d29b83d5c6cd793474]
class Flecha--><g id="elem_Flecha"><rect codeLine="66" fill="#F1F1F1" height="113.1875" id="Flecha" rx="2.5" ry="2.5" style="stroke:#181818;stroke-width:0.5;" width="147" x="343" y="588"/><ellipse cx="389.75" cy="604" fill="#ADD1B2" rx="11" ry="11" style="stroke:#181818;stroke-width:1.0;"/><path d="M392.7188,609.6406 Q392.1406,609.9375 391.5,610.0781 Q390.8594,610.2344 390.1563,610.2344 Q387.6563,610.2344 386.3281,608.5938 Q385.0156,606.9375 385.0156,603.8125 Q385.0156,600.6875 386.3281,599.0313 Q387.6563,597.375 390.1563,597.375 Q390.8594,597.375 391.5,597.5313 Q392.1563,597.6875 392.7188,597.9844 L392.7188,600.7031 Q392.0938,600.125 391.5,599.8594 Q390.9063,599.5781 390.2813,599.5781 Q388.9375,599.5781 388.25,600.6563 Q387.5625,601.7188 387.5625,603.8125 Q387.5625,605.9063 388.25,606.9844 Q388.9375,608.0469 390.2813,608.0469 Q390.9063,608.0469 391.5,607.7813 Q392.0938,607.5 392.7188,606.9219 L392.7188,609.6406 Z " fill="#000000"/><text fill="#000000" font-family="sans-serif" font-size="14" lengthAdjust="spacing" textLength="45" x="410.25" y="608.8467">Flecha</text><line style="stroke:#181818;stroke-width:0.5;" x1="344" x2="489" y1="620" y2="620"/><line style="stroke:#181818;stroke-width:0.5;" x1="344" x2="489" y1="628" y2="628"/><text fill="#000000" font-family="sans-serif" font-size="14" lengthAdjust="spacing" textLength="135" x="349" y="644.9951">flechaIntermitente()</text><text fill="#000000" font-family="sans-serif" font-size="14" lengthAdjust="spacing" textLength="115" x="349" y="661.292">cambiarImagen()</text><text fill="#000000" font-family="sans-serif" font-size="14" lengthAdjust="spacing" textLength="79" x="349" y="677.5889">moverBox()</text><text fill="#000000" font-family="sans-serif" font-size="14" lengthAdjust="spacing" textLength="84" x="349" y="693.8857">interactuar()</text></g><g id="elem_Mago"><rect fill="#F1F1F1" height="93.4844" style="stroke:#181818;stroke-width:0.5;" width="136" x="672.5" y="25"/><text fill="#000000" font-family="sans-serif" font-size="14" lengthAdjust="spacing" textLength="38" x="721.5" y="39.9951">Mago</text><line style="stroke:#181818;stroke-width:0.5;" x1="673.5" x2="807.5" y1="45.2969" y2="45.2969"/><text fill="#000000" font-family="sans-serif" font-size="14" lengthAdjust="spacing" textLength="65" x="678.5" y="62.292">disparar()</text><text fill="#000000" font-family="sans-serif" font-size="14" lengthAdjust="spacing" textLength="89" x="678.5" y="78.5889">crearFuego()</text><text fill="#000000" font-family="sans-serif" font-size="14" lengthAdjust="spacing" textLength="84" x="678.5" y="94.8857">interactuar()</text><text fill="#000000" font-family="sans-serif" font-size="14" lengthAdjust="spacing" textLength="124" x="678.5" y="111.1826">quemarse(objeto)</text></g><!--MD5=[bc5069084680bc0fe210a53cac690a93]
class FuegoMago--><g id="elem_FuegoMago"><rect codeLine="80" fill="#F1F1F1" height="80.5938" id="FuegoMago" rx="2.5" ry="2.5" style="stroke:#181818;stroke-width:0.5;" width="114" x="525.5" y="604"/><ellipse cx="540.5" cy="620" fill="#ADD1B2" rx="11" ry="11" style="stroke:#181818;stroke-width:1.0;"/><path d="M543.4688,625.6406 Q542.8906,625.9375 542.25,626.0781 Q541.6094,626.2344 540.9063,626.2344 Q538.4063,626.2344 537.0781,624.5938 Q535.7656,622.9375 535.7656,619.8125 Q535.7656,616.6875 537.0781,615.0313 Q538.4063,613.375 540.9063,613.375 Q541.6094,613.375 542.25,613.5313 Q542.9063,613.6875 543.4688,613.9844 L543.4688,616.7031 Q542.8438,616.125 542.25,615.8594 Q541.6563,615.5781 541.0313,615.5781 Q539.6875,615.5781 539,616.6563 Q538.3125,617.7188 538.3125,619.8125 Q538.3125,621.9063 539,622.9844 Q539.6875,624.0469 541.0313,624.0469 Q541.6563,624.0469 542.25,623.7813 Q542.8438,623.5 543.4688,622.9219 L543.4688,625.6406 Z " fill="#000000"/><text fill="#000000" font-family="sans-serif" font-size="14" lengthAdjust="spacing" textLength="82" x="554.5" y="624.8467">FuegoMago</text><line style="stroke:#181818;stroke-width:0.5;" x1="526.5" x2="638.5" y1="636" y2="636"/><line style="stroke:#181818;stroke-width:0.5;" x1="526.5" x2="638.5" y1="644" y2="644"/><text fill="#000000" font-family="sans-serif" font-size="14" lengthAdjust="spacing" textLength="70" x="531.5" y="660.9951">moverse()</text><text fill="#000000" font-family="sans-serif" font-size="14" lengthAdjust="spacing" textLength="84" x="531.5" y="677.292">interactuar()</text></g><!--MD5=[3051a6a8f877a755a60c7cfd1e6f410a]
class Objeto--><g id="elem_Objeto"><rect codeLine="85" fill="#F1F1F1" height="80.5938" id="Objeto" rx="2.5" ry="2.5" style="stroke:#181818;stroke-width:0.5;" width="96" x="1085.5" y="1202"/><ellipse cx="1108.6" cy="1218" fill="#ADD1B2" rx="11" ry="11" style="stroke:#181818;stroke-width:1.0;"/><path d="M1111.5688,1223.6406 Q1110.9906,1223.9375 1110.35,1224.0781 Q1109.7094,1224.2344 1109.0063,1224.2344 Q1106.5063,1224.2344 1105.1781,1222.5938 Q1103.8656,1220.9375 1103.8656,1217.8125 Q1103.8656,1214.6875 1105.1781,1213.0313 Q1106.5063,1211.375 1109.0063,1211.375 Q1109.7094,1211.375 1110.35,1211.5313 Q1111.0063,1211.6875 1111.5688,1211.9844 L1111.5688,1214.7031 Q1110.9438,1214.125 1110.35,1213.8594 Q1109.7563,1213.5781 1109.1313,1213.5781 Q1107.7875,1213.5781 1107.1,1214.6563 Q1106.4125,1215.7188 1106.4125,1217.8125 Q1106.4125,1219.9063 1107.1,1220.9844 Q1107.7875,1222.0469 1109.1313,1222.0469 Q1109.7563,1222.0469 1110.35,1221.7813 Q1110.9438,1221.5 1111.5688,1220.9219 L1111.5688,1223.6406 Z " fill="#000000"/><text fill="#000000" font-family="sans-serif" font-size="14" lengthAdjust="spacing" textLength="46" x="1124.4" y="1222.8467">Objeto</text><line style="stroke:#181818;stroke-width:0.5;" x1="1086.5" x2="1180.5" y1="1234" y2="1234"/><line style="stroke:#181818;stroke-width:0.5;" x1="1086.5" x2="1180.5" y1="1242" y2="1242"/><text fill="#000000" font-family="sans-serif" font-size="14" lengthAdjust="spacing" textLength="84" x="1091.5" y="1258.9951">interactuar()</text><text fill="#000000" font-family="sans-serif" font-size="14" lengthAdjust="spacing" textLength="40" x="1091.5" y="1275.292">usar()</text></g><g id="elem_caja"><rect fill="#F1F1F1" height="60.8906" style="stroke:#181818;stroke-width:0.5;" width="99" x="949" y="1063"/><text fill="#000000" font-family="sans-serif" font-size="14" lengthAdjust="spacing" textLength="27" x="985" y="1077.9951">caja</text><line style="stroke:#181818;stroke-width:0.5;" x1="950" x2="1047" y1="1083.2969" y2="1083.2969"/><text fill="#000000" font-family="sans-serif" font-size="14" lengthAdjust="spacing" textLength="87" x="955" y="1100.292">tocarBoton()</text><text fill="#000000" font-family="sans-serif" font-size="14" lengthAdjust="spacing" textLength="84" x="955" y="1116.5889">interactuar()</text></g><g id="elem_banderaRoja"><rect fill="#F1F1F1" height="60.8906" style="stroke:#181818;stroke-width:0.5;" width="101" x="1083" y="1063"/><text fill="#000000" font-family="sans-serif" font-size="14" lengthAdjust="spacing" textLength="87" x="1090" y="1077.9951">banderaRoja</text><line style="stroke:#181818;stroke-width:0.5;" x1="1084" x2="1183" y1="1083.2969" y2="1083.2969"/><text fill="#000000" font-family="sans-serif" font-size="14" lengthAdjust="spacing" textLength="66" x="1089" y="1100.292">pasoNivel</text><text fill="#000000" font-family="sans-serif" font-size="14" lengthAdjust="spacing" textLength="84" x="1089" y="1116.5889">interactuar()</text></g><!--MD5=[32b932b39b07945242e92864b6aaf819]
class ObjetoUsable--><g id="elem_ObjetoUsable"><rect codeLine="103" fill="#F1F1F1" height="96.8906" id="ObjetoUsable" rx="2.5" ry="2.5" style="stroke:#181818;stroke-width:0.5;" width="137" x="777" y="1045"/><ellipse cx="797.4" cy="1061" fill="#ADD1B2" rx="11" ry="11" style="stroke:#181818;stroke-width:1.0;"/><path d="M800.3688,1066.6406 Q799.7906,1066.9375 799.15,1067.0781 Q798.5094,1067.2344 797.8063,1067.2344 Q795.3063,1067.2344 793.9781,1065.5938 Q792.6656,1063.9375 792.6656,1060.8125 Q792.6656,1057.6875 793.9781,1056.0313 Q795.3063,1054.375 797.8063,1054.375 Q798.5094,1054.375 799.15,1054.5313 Q799.8063,1054.6875 800.3688,1054.9844 L800.3688,1057.7031 Q799.7438,1057.125 799.15,1056.8594 Q798.5563,1056.5781 797.9313,1056.5781 Q796.5875,1056.5781 795.9,1057.6563 Q795.2125,1058.7188 795.2125,1060.8125 Q795.2125,1062.9063 795.9,1063.9844 Q796.5875,1065.0469 797.9313,1065.0469 Q798.5563,1065.0469 799.15,1064.7813 Q799.7438,1064.5 800.3688,1063.9219 L800.3688,1066.6406 Z " fill="#000000"/><text fill="#000000" font-family="sans-serif" font-size="14" lengthAdjust="spacing" textLength="93" x="812.6" y="1065.8467">ObjetoUsable</text><line style="stroke:#181818;stroke-width:0.5;" x1="778" x2="913" y1="1077" y2="1077"/><line style="stroke:#181818;stroke-width:0.5;" x1="778" x2="913" y1="1085" y2="1085"/><text fill="#000000" font-family="sans-serif" font-size="14" lengthAdjust="spacing" textLength="84" x="783" y="1101.9951">interactuar()</text><text fill="#000000" font-family="sans-serif" font-size="14" lengthAdjust="spacing" textLength="125" x="783" y="1118.292">equipar(direccion)</text><text fill="#000000" font-family="sans-serif" font-size="14" lengthAdjust="spacing" textLength="82" x="783" y="1134.5889">tirarObjeto()</text></g><g id="elem_kit"><rect fill="#F1F1F1" height="36.2969" style="stroke:#181818;stroke-width:0.5;" width="30" x="688.5" y="855"/><text fill="#000000" font-family="sans-serif" font-size="14" lengthAdjust="spacing" textLength="16" x="695.5" y="869.9951">kit</text><line style="stroke:#181818;stroke-width:0.5;" x1="689.5" x2="717.5" y1="875.2969" y2="875.2969"/></g><g id="elem_espada"><rect fill="#F1F1F1" height="36.2969" style="stroke:#181818;stroke-width:0.5;" width="65" x="754" y="855"/><text fill="#000000" font-family="sans-serif" font-size="14" lengthAdjust="spacing" textLength="51" x="761" y="869.9951">espada</text><line style="stroke:#181818;stroke-width:0.5;" x1="755" x2="818" y1="875.2969" y2="875.2969"/></g><g id="elem_escudo"><rect fill="#F1F1F1" height="36.2969" style="stroke:#181818;stroke-width:0.5;" width="66" x="854.5" y="855"/><text fill="#000000" font-family="sans-serif" font-size="14" lengthAdjust="spacing" textLength="52" x="861.5" y="869.9951">escudo</text><line style="stroke:#181818;stroke-width:0.5;" x1="855.5" x2="919.5" y1="875.2969" y2="875.2969"/></g><g id="elem_varita"><rect fill="#F1F1F1" height="36.2969" style="stroke:#181818;stroke-width:0.5;" width="50" x="955.5" y="855"/><text fill="#000000" font-family="sans-serif" font-size="14" lengthAdjust="spacing" textLength="36" x="962.5" y="869.9951">varita</text><line style="stroke:#181818;stroke-width:0.5;" x1="956.5" x2="1004.5" y1="875.2969" y2="875.2969"/></g><!--MD5=[624bd6129f9f6c861bf41a49a0d91817]
class FuegoBala--><g id="elem_FuegoBala"><rect codeLine="121" fill="#F1F1F1" height="64.2969" id="FuegoBala" rx="2.5" ry="2.5" style="stroke:#181818;stroke-width:0.5;" width="105" x="637" y="1061.5"/><ellipse cx="652" cy="1077.5" fill="#ADD1B2" rx="11" ry="11" style="stroke:#181818;stroke-width:1.0;"/><path d="M654.9688,1083.1406 Q654.3906,1083.4375 653.75,1083.5781 Q653.1094,1083.7344 652.4063,1083.7344 Q649.9063,1083.7344 648.5781,1082.0938 Q647.2656,1080.4375 647.2656,1077.3125 Q647.2656,1074.1875 648.5781,1072.5313 Q649.9063,1070.875 652.4063,1070.875 Q653.1094,1070.875 653.75,1071.0313 Q654.4063,1071.1875 654.9688,1071.4844 L654.9688,1074.2031 Q654.3438,1073.625 653.75,1073.3594 Q653.1563,1073.0781 652.5313,1073.0781 Q651.1875,1073.0781 650.5,1074.1563 Q649.8125,1075.2188 649.8125,1077.3125 Q649.8125,1079.4063 650.5,1080.4844 Q651.1875,1081.5469 652.5313,1081.5469 Q653.1563,1081.5469 653.75,1081.2813 Q654.3438,1081 654.9688,1080.4219 L654.9688,1083.1406 Z " fill="#000000"/><text fill="#000000" font-family="sans-serif" font-size="14" lengthAdjust="spacing" textLength="73" x="666" y="1082.3467">FuegoBala</text><line style="stroke:#181818;stroke-width:0.5;" x1="638" x2="741" y1="1093.5" y2="1093.5"/><line style="stroke:#181818;stroke-width:0.5;" x1="638" x2="741" y1="1101.5" y2="1101.5"/><text fill="#000000" font-family="sans-serif" font-size="14" lengthAdjust="spacing" textLength="70" x="643" y="1118.4951">moverse()</text></g><!--MD5=[0b927d44f7e24b313e0a6d3021c10a6e]
class Bloque--><g id="elem_Bloque"><rect codeLine="125" fill="#F1F1F1" height="48" id="Bloque" rx="2.5" ry="2.5" style="stroke:#181818;stroke-width:0.5;" width="81" x="1219" y="1069.5"/><ellipse cx="1234" cy="1085.5" fill="#ADD1B2" rx="11" ry="11" style="stroke:#181818;stroke-width:1.0;"/><path d="M1236.9688,1091.1406 Q1236.3906,1091.4375 1235.75,1091.5781 Q1235.1094,1091.7344 1234.4063,1091.7344 Q1231.9063,1091.7344 1230.5781,1090.0938 Q1229.2656,1088.4375 1229.2656,1085.3125 Q1229.2656,1082.1875 1230.5781,1080.5313 Q1231.9063,1078.875 1234.4063,1078.875 Q1235.1094,1078.875 1235.75,1079.0313 Q1236.4063,1079.1875 1236.9688,1079.4844 L1236.9688,1082.2031 Q1236.3438,1081.625 1235.75,1081.3594 Q1235.1563,1081.0781 1234.5313,1081.0781 Q1233.1875,1081.0781 1232.5,1082.1563 Q1231.8125,1083.2188 1231.8125,1085.3125 Q1231.8125,1087.4063 1232.5,1088.4844 Q1233.1875,1089.5469 1234.5313,1089.5469 Q1235.1563,1089.5469 1235.75,1089.2813 Q1236.3438,1089 1236.9688,1088.4219 L1236.9688,1091.1406 Z " fill="#000000"/><text fill="#000000" font-family="sans-serif" font-size="14" lengthAdjust="spacing" textLength="49" x="1248" y="1090.3467">Bloque</text><line style="stroke:#181818;stroke-width:0.5;" x1="1220" x2="1299" y1="1101.5" y2="1101.5"/><line style="stroke:#181818;stroke-width:0.5;" x1="1220" x2="1299" y1="1109.5" y2="1109.5"/></g><!--MD5=[32747c1d1c8b91510c81fb4490643105]
class Fuego--><g id="elem_Fuego"><rect codeLine="127" fill="#F1F1F1" height="96.8906" id="Fuego" rx="2.5" ry="2.5" style="stroke:#181818;stroke-width:0.5;" width="146" x="1335.5" y="1045"/><ellipse cx="1382.25" cy="1061" fill="#ADD1B2" rx="11" ry="11" style="stroke:#181818;stroke-width:1.0;"/><path d="M1385.2188,1066.6406 Q1384.6406,1066.9375 1384,1067.0781 Q1383.3594,1067.2344 1382.6563,1067.2344 Q1380.1563,1067.2344 1378.8281,1065.5938 Q1377.5156,1063.9375 1377.5156,1060.8125 Q1377.5156,1057.6875 1378.8281,1056.0313 Q1380.1563,1054.375 1382.6563,1054.375 Q1383.3594,1054.375 1384,1054.5313 Q1384.6563,1054.6875 1385.2188,1054.9844 L1385.2188,1057.7031 Q1384.5938,1057.125 1384,1056.8594 Q1383.4063,1056.5781 1382.7813,1056.5781 Q1381.4375,1056.5781 1380.75,1057.6563 Q1380.0625,1058.7188 1380.0625,1060.8125 Q1380.0625,1062.9063 1380.75,1063.9844 Q1381.4375,1065.0469 1382.7813,1065.0469 Q1383.4063,1065.0469 1384,1064.7813 Q1384.5938,1064.5 1385.2188,1063.9219 L1385.2188,1066.6406 Z " fill="#000000"/><text fill="#000000" font-family="sans-serif" font-size="14" lengthAdjust="spacing" textLength="44" x="1402.75" y="1065.8467">Fuego</text><line style="stroke:#181818;stroke-width:0.5;" x1="1336.5" x2="1480.5" y1="1077" y2="1077"/><line style="stroke:#181818;stroke-width:0.5;" x1="1336.5" x2="1480.5" y1="1085" y2="1085"/><text fill="#000000" font-family="sans-serif" font-size="14" lengthAdjust="spacing" textLength="134" x="1341.5" y="1101.9951">fuegoIntermitente()</text><text fill="#000000" font-family="sans-serif" font-size="14" lengthAdjust="spacing" textLength="37" x="1341.5" y="1118.292">titila()</text><text fill="#000000" font-family="sans-serif" font-size="14" lengthAdjust="spacing" textLength="84" x="1341.5" y="1134.5889">interactuar()</text></g><!--MD5=[1c5db2d127c559c3d3f9dba0600b96b3]
class Pinche--><g id="elem_Pinche"><rect codeLine="133" fill="#F1F1F1" height="129.4844" id="Pinche" rx="2.5" ry="2.5" style="stroke:#181818;stroke-width:0.5;" width="153" x="844" y="7"/><ellipse cx="892.75" cy="23" fill="#ADD1B2" rx="11" ry="11" style="stroke:#181818;stroke-width:1.0;"/><path d="M895.7188,28.6406 Q895.1406,28.9375 894.5,29.0781 Q893.8594,29.2344 893.1563,29.2344 Q890.6563,29.2344 889.3281,27.5938 Q888.0156,25.9375 888.0156,22.8125 Q888.0156,19.6875 889.3281,18.0313 Q890.6563,16.375 893.1563,16.375 Q893.8594,16.375 894.5,16.5313 Q895.1563,16.6875 895.7188,16.9844 L895.7188,19.7031 Q895.0938,19.125 894.5,18.8594 Q893.9063,18.5781 893.2813,18.5781 Q891.9375,18.5781 891.25,19.6563 Q890.5625,20.7188 890.5625,22.8125 Q890.5625,24.9063 891.25,25.9844 Q891.9375,27.0469 893.2813,27.0469 Q893.9063,27.0469 894.5,26.7813 Q895.0938,26.5 895.7188,25.9219 L895.7188,28.6406 Z " fill="#000000"/><text fill="#000000" font-family="sans-serif" font-size="14" lengthAdjust="spacing" textLength="47" x="913.25" y="27.8467">Pinche</text><line style="stroke:#181818;stroke-width:0.5;" x1="845" x2="996" y1="39" y2="39"/><line style="stroke:#181818;stroke-width:0.5;" x1="845" x2="996" y1="47" y2="47"/><text fill="#000000" font-family="sans-serif" font-size="14" lengthAdjust="spacing" textLength="112" x="850" y="63.9951">cambiarEstado()</text><text fill="#000000" font-family="sans-serif" font-size="14" lengthAdjust="spacing" textLength="141" x="850" y="80.292">pincheIntermitente()</text><text fill="#000000" font-family="sans-serif" font-size="14" lengthAdjust="spacing" textLength="84" x="850" y="96.5889">interactuar()</text><text fill="#000000" font-family="sans-serif" font-size="14" lengthAdjust="spacing" textLength="90" x="850" y="112.8857">bajarPinche()</text><text fill="#000000" font-family="sans-serif" font-size="14" lengthAdjust="spacing" textLength="91" x="850" y="129.1826">subirPinche()</text></g><!--MD5=[ad4bb00a1fe348ed29ff6d5538e67739]
class mago--><g id="elem_mago"><rect fill="#F1F1F1" height="48" id="mago" rx="2.5" ry="2.5" style="stroke:#181818;stroke-width:0.5;" width="71" x="547" y="431"/><ellipse cx="562" cy="447" fill="#ADD1B2" rx="11" ry="11" style="stroke:#181818;stroke-width:1.0;"/><path d="M564.9688,452.6406 Q564.3906,452.9375 563.75,453.0781 Q563.1094,453.2344 562.4063,453.2344 Q559.9063,453.2344 558.5781,451.5938 Q557.2656,449.9375 557.2656,446.8125 Q557.2656,443.6875 558.5781,442.0313 Q559.9063,440.375 562.4063,440.375 Q563.1094,440.375 563.75,440.5313 Q564.4063,440.6875 564.9688,440.9844 L564.9688,443.7031 Q564.3438,443.125 563.75,442.8594 Q563.1563,442.5781 562.5313,442.5781 Q561.1875,442.5781 560.5,443.6563 Q559.8125,444.7188 559.8125,446.8125 Q559.8125,448.9063 560.5,449.9844 Q561.1875,451.0469 562.5313,451.0469 Q563.1563,451.0469 563.75,450.7813 Q564.3438,450.5 564.9688,449.9219 L564.9688,452.6406 Z " fill="#000000"/><text fill="#000000" font-family="sans-serif" font-size="14" lengthAdjust="spacing" textLength="39" x="576" y="451.8467">mago</text><line style="stroke:#181818;stroke-width:0.5;" x1="548" x2="617" y1="463" y2="463"/><line style="stroke:#181818;stroke-width:0.5;" x1="548" x2="617" y1="471" y2="471"/></g><!--MD5=[6b66d2c3c988507054d602aec971873c]
link caja to Objeto--><g id="link_caja_Objeto"><path codeLine="100" d="M1025.82,1124.25 C1042.31,1142.2 1063.83,1165.64 1083.3,1186.84 " fill="none" id="caja-to-Objeto" style="stroke:#181818;stroke-width:1.0;"/><polygon fill="none" points="1088.63,1182.3,1097.01,1201.76,1078.32,1191.77,1088.63,1182.3" style="stroke:#181818;stroke-width:1.0;"/></g><!--MD5=[45612592915251ced464643374ae14dc]
link banderaRoja to Objeto--><g id="link_banderaRoja_Objeto"><path codeLine="101" d="M1133.5,1124.25 C1133.5,1140.72 1133.5,1161.81 1133.5,1181.55 " fill="none" id="banderaRoja-to-Objeto" style="stroke:#181818;stroke-width:1.0;"/><polygon fill="none" points="1140.5,1181.76,1133.5,1201.76,1126.5,1181.76,1140.5,1181.76" style="stroke:#181818;stroke-width:1.0;"/></g><!--MD5=[89e4df4565b45efd217ffd8baea03f47]
link ObjetoUsable to Objeto--><g id="link_ObjetoUsable_Objeto"><path codeLine="109" d="M914.35,1132.9 C920.13,1136.01 925.91,1139.08 931.5,1142 C976.42,1165.45 1027.64,1190.67 1067.27,1209.85 " fill="none" id="ObjetoUsable-to-Objeto" style="stroke:#181818;stroke-width:1.0;"/><polygon fill="none" points="1070.46,1203.61,1085.43,1218.61,1064.37,1216.22,1070.46,1203.61" style="stroke:#181818;stroke-width:1.0;"/></g><!--MD5=[8e733a24c53d8cc48ad3f99aa405867e]
link kit to ObjetoUsable--><g id="link_kit_ObjetoUsable"><path codeLine="116" d="M705.88,891.25 C709.62,914.04 718.39,954.84 736.5,985 C746.19,1001.15 758.87,1016.6 772.14,1030.49 " fill="none" id="kit-to-ObjetoUsable" style="stroke:#181818;stroke-width:1.0;"/><polygon fill="none" points="777.41,1025.85,786.66,1044.92,767.54,1035.78,777.41,1025.85" style="stroke:#181818;stroke-width:1.0;"/></g><!--MD5=[406c3c8c0b84f5660fbdaec7e2da5114]
link espada to ObjetoUsable--><g id="link_espada_ObjetoUsable"><path codeLine="117" d="M791.13,891.15 C798.84,919.69 814.7,978.44 827.31,1025.14 " fill="none" id="espada-to-ObjetoUsable" style="stroke:#181818;stroke-width:1.0;"/><polygon fill="none" points="834.12,1023.49,832.57,1044.63,820.6,1027.14,834.12,1023.49" style="stroke:#181818;stroke-width:1.0;"/></g><!--MD5=[8f8a835be063b254a864b9ad0468606c]
link escudo to ObjetoUsable--><g id="link_escudo_ObjetoUsable"><path codeLine="118" d="M884.2,891.15 C878.73,919.63 867.48,978.17 858.51,1024.83 " fill="none" id="escudo-to-ObjetoUsable" style="stroke:#181818;stroke-width:1.0;"/><polygon fill="none" points="865.35,1026.31,854.7,1044.63,851.6,1023.66,865.35,1026.31" style="stroke:#181818;stroke-width:1.0;"/></g><!--MD5=[c7981cf237455cf693859a7ff6b136ed]
link varita to ObjetoUsable--><g id="link_varita_ObjetoUsable"><path codeLine="119" d="M976.09,891 C969.81,913.53 956.96,954.03 938.5,985 C929.37,1000.33 917.97,1015.57 906.33,1029.55 " fill="none" id="varita-to-ObjetoUsable" style="stroke:#181818;stroke-width:1.0;"/><polygon fill="none" points="911.56,1034.2,893.18,1044.74,900.98,1025.04,911.56,1034.2" style="stroke:#181818;stroke-width:1.0;"/></g><!--MD5=[dcc9ecd6d28cd948c15d956e1313439f]
link Fuego to Objeto--><g id="link_Fuego_Objeto"><path codeLine="141" d="M1335.17,1133.7 C1292.94,1156.27 1240.32,1184.4 1199.41,1206.27 " fill="none" id="Fuego-to-Objeto" style="stroke:#181818;stroke-width:1.0;"/><polygon fill="none" points="1202.46,1212.57,1181.52,1215.83,1195.86,1200.23,1202.46,1212.57" style="stroke:#181818;stroke-width:1.0;"/></g><!--MD5=[10718489535a870fb90a72363be7bb77]
link Bloque to Objeto--><g id="link_Bloque_Objeto"><path codeLine="142" d="M1239.53,1117.79 C1223.73,1136.23 1201,1162.75 1180.64,1186.51 " fill="none" id="Bloque-to-Objeto" style="stroke:#181818;stroke-width:1.0;"/><polygon fill="none" points="1185.69,1191.36,1167.36,1201.99,1175.06,1182.25,1185.69,1191.36" style="stroke:#181818;stroke-width:1.0;"/></g><!--MD5=[b059aa3e566f9595039f6dee79e984a2]
link mago to FuegoMago--><g id="link_mago_FuegoMago"><path codeLine="144" d="M582.5,479.37 C582.5,509.03 582.5,560.84 582.5,598.33 " fill="none" id="mago-to-FuegoMago" style="stroke:#181818;stroke-width:1.0;"/><polygon fill="#181818" points="582.5,603.75,586.5,594.75,582.5,598.75,578.5,594.75,582.5,603.75" style="stroke:#181818;stroke-width:1.0;"/><text fill="#000000" font-family="sans-serif" font-size="13" lengthAdjust="spacing" textLength="7" x="574.9203" y="592.8701">*</text></g><!--MD5=[1e846ac3802717eb8670265d2aab306a]
link caballero to personaje--><g id="link_caballero_personaje"><path codeLine="146" d="M701.12,667.22 C675.32,693.42 630.31,739.13 589.36,780.73 " fill="none" id="caballero-to-personaje" style="stroke:#181818;stroke-width:1.0;stroke-dasharray:7.0,7.0;"/><polygon fill="none" points="594.1,785.9,575.08,795.24,584.12,776.07,594.1,785.9" style="stroke:#181818;stroke-width:1.0;"/></g><!--MD5=[f152518405c1a4395c470f40297a3d62]
link FuegoMago to personaje--><g id="link_FuegoMago_personaje"><path codeLine="147" d="M567.95,685.21 C562,701.43 554.76,721.2 547.24,741.73 " fill="none" id="FuegoMago-to-personaje" style="stroke:#181818;stroke-width:1.0;stroke-dasharray:7.0,7.0;"/><polygon fill="none" points="553.73,744.36,540.28,760.73,540.58,739.54,553.73,744.36" style="stroke:#181818;stroke-width:1.0;"/></g><!--MD5=[618f844f4560a83b0c9f0fde51fa88b3]
link Flecha to personaje--><g id="link_Flecha_personaje"><path codeLine="148" d="M436.91,701.2 C441.52,713.77 446.59,727.62 451.8,741.84 " fill="none" id="Flecha-to-personaje" style="stroke:#181818;stroke-width:1.0;stroke-dasharray:7.0,7.0;"/><polygon fill="none" points="458.39,739.48,458.7,760.67,445.25,744.3,458.39,739.48" style="stroke:#181818;stroke-width:1.0;"/></g><!--MD5=[ca71efaeb64d1febd3a17a11821df117]
link personaje to izquierda--><g id="link_personaje_izquierda"><path codeLine="150" d="M423.93,932.55 C366.87,976.76 291.45,1035.2 249.37,1067.8 " fill="none" id="personaje-to-izquierda" style="stroke:#181818;stroke-width:1.0;"/><polygon fill="#181818" points="245.41,1070.88,254.9776,1068.5431,249.3667,1067.8232,250.0867,1062.2123,245.41,1070.88" style="stroke:#181818;stroke-width:1.0;"/><text fill="#000000" font-family="sans-serif" font-size="13" lengthAdjust="spacing" textLength="7" x="244.9702" y="1059.9246">*</text></g><!--MD5=[55b1981c05c9b9aa1f888afe4d2ce309]
link personaje to derecha--><g id="link_personaje_derecha"><path codeLine="151" d="M423.87,907.12 C350.55,939.93 236.75,992.71 141.5,1045 C128.62,1052.07 114.91,1060.38 102.72,1068.07 " fill="none" id="personaje-to-derecha" style="stroke:#181818;stroke-width:1.0;"/><polygon fill="#181818" points="98.31,1070.86,108.053,1069.4199,102.533,1068.183,103.7699,1062.6631,98.31,1070.86" style="stroke:#181818;stroke-width:1.0;"/><text fill="#000000" font-family="sans-serif" font-size="13" lengthAdjust="spacing" textLength="7" x="99.1871" y="1059.8992">*</text></g><!--MD5=[d681ef8c9a5f04b678f0809fcc061375]
link personaje to vacio--><g id="link_personaje_vacio"><path codeLine="152" d="M438.45,985.17 C423.8,1011.83 409.25,1038.34 398.26,1058.34 " fill="none" id="personaje-to-vacio" style="stroke:#181818;stroke-width:1.0;"/><polygon fill="#181818" points="395.83,1062.76,403.6676,1056.7958,398.2363,1058.3771,396.655,1052.9458,395.83,1062.76" style="stroke:#181818;stroke-width:1.0;"/><text fill="#000000" font-family="sans-serif" font-size="13" lengthAdjust="spacing" textLength="7" x="391.4762" y="1051.9649">*</text></g><!--MD5=[e96353ad0f0f4fafa3befb9bbd1c6c12]
link personaje to Corazon--><g id="link_personaje_Corazon"><path codeLine="153" d="M521.38,985.17 C525.14,1004.28 528.88,1023.31 532.15,1039.92 " fill="none" id="personaje-to-Corazon" style="stroke:#181818;stroke-width:1.0;"/><polygon fill="#181818" points="533.15,1045,535.3234,1035.394,532.1777,1040.0955,527.4762,1036.9497,533.15,1045" style="stroke:#181818;stroke-width:1.0;"/><text fill="#000000" font-family="sans-serif" font-size="13" lengthAdjust="spacing" textLength="7" x="524.2627" y="1033.8597">*</text></g><!--MD5=[ce274bb85c483d214dbf22d600abd57d]
link personaje to FuegoBala--><g id="link_personaje_FuegoBala"><path codeLine="154" d="M575.14,960.98 C600.44,990.08 627.65,1021.37 649.18,1046.13 " fill="none" id="personaje-to-FuegoBala" style="stroke:#181818;stroke-width:1.0;stroke-dasharray:7.0,7.0;"/><polygon fill="none" points="654.59,1041.68,662.43,1061.37,644.02,1050.87,654.59,1041.68" style="stroke:#181818;stroke-width:1.0;"/></g><!--MD5=[39c6c889573a08f72b5d44d2fb3285a6]
link personaje to ObjetoUsable--><g id="link_personaje_ObjetoUsable"><path codeLine="155" d="M575.07,923.23 C605.01,942.61 639.8,964.98 671.5,985 C700.09,1003.06 731.49,1022.56 759.65,1039.92 " fill="none" id="personaje-to-ObjetoUsable" style="stroke:#181818;stroke-width:1.0;stroke-dasharray:7.0,7.0;"/><polygon fill="none" points="763.36,1033.98,776.71,1050.43,756.01,1045.9,763.36,1033.98" style="stroke:#181818;stroke-width:1.0;"/></g><!--MD5=[f61a165a3581720e53a85905ec56e489]
link inicioManager to juego--><g id="link_inicioManager_juego"><path codeLine="157" d="M582.5,94.14 C582.5,117.64 582.5,156.35 582.5,190.25 " fill="none" id="inicioManager-to-juego" style="stroke:#181818;stroke-width:1.0;stroke-dasharray:7.0,7.0;"/><polygon fill="#181818" points="582.5,195.64,586.5,186.64,582.5,190.64,578.5,186.64,582.5,195.64" style="stroke:#181818;stroke-width:1.0;"/></g><!--MD5=[7662ddb874be07eb4315fb51fd5b5830]
link juego to Nivel--><g id="link_juego_Nivel"><path codeLine="158" d="M516.79,322.18 C498.02,339.95 477.34,359.51 457.8,378.01 " fill="none" id="juego-to-Nivel" style="stroke:#181818;stroke-width:1.0;"/><polygon fill="#181818" points="453.91,381.69,463.2053,378.4345,457.551,378.2632,457.7223,372.6089,453.91,381.69" style="stroke:#181818;stroke-width:1.0;"/></g><!--MD5=[83d1e4cf196f176e551beb40d63d2e74]
link juego to mago--><g id="link_juego_mago"><path codeLine="159" d="M582.5,322.18 C582.5,356.89 582.5,398.44 582.5,425.49 " fill="none" id="juego-to-mago" style="stroke:#181818;stroke-width:1.0;"/><polygon fill="#181818" points="582.5,430.7,586.5,421.7,582.5,425.7,578.5,421.7,582.5,430.7" style="stroke:#181818;stroke-width:1.0;"/></g><!--MD5=[2783630c06ce65b9060622e5c37a9d5e]
link Nivel to personaje--><g id="link_Nivel_personaje"><path codeLine="161" d="M340.09,528.09 C319.4,578.06 302.17,645.36 325.5,701 C342.89,742.47 375.79,778.96 408.34,807.47 " fill="none" id="Nivel-to-personaje" style="stroke:#181818;stroke-width:1.0;stroke-dasharray:7.0,7.0;"/><polygon fill="none" points="412.91,802.17,423.72,820.4,403.9,812.88,412.91,802.17" style="stroke:#181818;stroke-width:1.0;"/></g><!--MD5=[70bed1309dbf456ffc8a6e41bee26cb2]
link Nivel to Flecha--><g id="link_Nivel_Flecha"><path codeLine="162" d="M392.52,528.22 C395.23,541.22 398.05,554.8 400.77,567.9 " fill="none" id="Nivel-to-Flecha" style="stroke:#181818;stroke-width:1.0;stroke-dasharray:7.0,7.0;"/><polygon fill="none" points="407.72,566.9,404.94,587.91,394.01,569.75,407.72,566.9" style="stroke:#181818;stroke-width:1.0;"/></g><!--MD5=[c9532940955ffd73c6357dfad841a78c]
link nivel0 to Nivel--><g id="link_nivel0_Nivel"><path codeLine="164" d="M260.86,277.22 C273.99,297.12 296.6,331.39 318.44,364.49 " fill="none" id="nivel0-to-Nivel" style="stroke:#181818;stroke-width:1.0;"/><polygon fill="none" points="324.57,361.07,329.74,381.62,312.88,368.78,324.57,361.07" style="stroke:#181818;stroke-width:1.0;"/></g><!--MD5=[0dbccec801dafdc4b2c8d8846816d712]
link nivel1 to Nivel--><g id="link_nivel1_Nivel"><path codeLine="165" d="M341.96,277.22 C345.85,296.57 352.47,329.51 358.96,361.76 " fill="none" id="nivel1-to-Nivel" style="stroke:#181818;stroke-width:1.0;"/><polygon fill="none" points="365.87,360.63,362.95,381.62,352.14,363.39,365.87,360.63" style="stroke:#181818;stroke-width:1.0;"/></g><!--MD5=[6aa8b4f19035336fc88f74758d35e10d]
link nivel2 to Nivel--><g id="link_nivel2_Nivel"><path codeLine="166" d="M423.06,277.22 C418.05,296.66 409.5,329.83 401.16,362.21 " fill="none" id="nivel2-to-Nivel" style="stroke:#181818;stroke-width:1.0;"/><polygon fill="none" points="407.93,363.99,396.16,381.62,394.37,360.5,407.93,363.99" style="stroke:#181818;stroke-width:1.0;"/></g><!--MD5=[6136130481dbfcfc00f70eb5bbe35230]
@startuml
object inicioManager{
  inicializar()
}

object juego{
  nivelActual
  iniciar()
  siguienteNivel()
  interaccionesGenerales()
  configurarPersonaje()
  agregarInventario()
}

class Nivel{
   proximoNivel()
	agregarObstaculos()
	iniciar()
	agregarEnemigos()
	agregarObjetos()
	interacciones()
}

object nivel0
object nivel1
object nivel2

object personaje{
  posicionReaparicion
  direccion
  corazones
  inventario
  objetoEnMano
  
  derecha()
  izquierda()
  muere()
  sumarVida()
  restarVida()
  agachar()
  disparar()
}

object derecha{
  imagen(objeto)
}

object izquierda{
  imagen(objeto)
}

object vacio{
  equipar(direccion)
  usar()
}

class Corazon{
  lleno()
  vaciarCorazon()
  llenarCorazon()
}

object caballero{
  interactuar()
}

class Flecha{
  flechaIntermitente()
  cambiarImagen()
  moverBox()
  interactuar()
}

object Mago{
  disparar()
  crearFuego()
  interactuar()
  quemarse(objeto)
}

class FuegoMago{
 moverse()
  interactuar()
}

class Objeto{
 interactuar()
  usar()
}

object caja{
  tocarBoton()
  interactuar()
}

object banderaRoja{
  pasoNivel
  interactuar() 
}

caja - -|> Objeto
banderaRoja - -|> Objeto

class ObjetoUsable{
  interactuar()
  equipar(direccion)
  tirarObjeto()
}

ObjetoUsable - -|> Objeto

object kit
object espada
object escudo
object varita

kit - -|> ObjetoUsable
espada - -|> ObjetoUsable
escudo - -|> ObjetoUsable
varita - -|> ObjetoUsable

class FuegoBala{
  moverse()
}

class Bloque

class Fuego{
  fuegoIntermitente()
  titila()
  interactuar()
}

class Pinche{
 cambiarEstado()
  pincheIntermitente()
  interactuar()
  bajarPinche()
  subirPinche()
}

Fuego - -|> Objeto
Bloque - -|> Objeto

mago - ->"*" FuegoMago

caballero ..|> personaje
FuegoMago ..|> personaje
Flecha ..|> personaje

personaje - ->"*" izquierda
personaje- ->"*" derecha
personaje - ->"*" vacio
personaje- ->"*" Corazon
personaje ..|> FuegoBala
personaje ..|> ObjetoUsable

inicioManager ..> juego
juego - -> Nivel
juego - -> mago

Nivel ..|> personaje
Nivel ..|> Flecha

nivel0 - -|> Nivel
nivel1 - -|> Nivel
nivel2 - -|> Nivel
@enduml

PlantUML version 1.2022.7(Mon Aug 22 17:01:30 UTC 2022)
(GPL source distribution)
Java Runtime: OpenJDK Runtime Environment
JVM: OpenJDK 64-Bit Server VM
Default Encoding: UTF-8
Language: en
Country: null
--></g></svg>